<svg width="113" height="33" viewBox="0 0 113 33" fill="none" xmlns="http://www.w3.org/2000/svg">
<g clip-path="url(#clip0_101_308)">
<mask id="path-1-inside-1_101_308" fill="white">
<path d="M28 0H108C110.761 0 113 2.23858 113 5V27C113 29.7614 110.761 32 108 32H28V0Z"/>
</mask>
<path d="M28 0H108C110.761 0 113 2.23858 113 5V27C113 29.7614 110.761 32 108 32H28V0Z" fill="white"/>
<path d="M28 -1H108C111.314 -1 114 1.68629 114 5H112C112 2.79086 110.209 1 108 1H28V-1ZM114 27C114 30.3137 111.314 33 108 33H28V31H108C110.209 31 112 29.2091 112 27H114ZM28 32V0V32ZM108 -1C111.314 -1 114 1.68629 114 5V27C114 30.3137 111.314 33 108 33V31C110.209 31 112 29.2091 112 27V5C112 2.79086 110.209 1 108 1V-1Z" fill="#3A342B" mask="url(#path-1-inside-1_101_308)"/>
<mask id="path-3-inside-2_101_308" fill="white">
<path d="M0 5C0 2.23858 2.23858 0 5 0H29V32H5C2.23858 32 0 29.7614 0 27V5Z"/>
</mask>
<path d="M0 5C0 2.23858 2.23858 0 5 0H29V32H5C2.23858 32 0 29.7614 0 27V5Z" fill="url(#paint0_linear_101_308)"/>
<path d="M-1 5C-1 1.68629 1.68629 -1 5 -1H29V1H5C2.79086 1 1 2.79086 1 5H-1ZM29 33H5C1.68629 33 -1 30.3137 -1 27H1C1 29.2091 2.79086 31 5 31H29V33ZM5 33C1.68629 33 -1 30.3137 -1 27V5C-1 1.68629 1.68629 -1 5 -1V1C2.79086 1 1 2.79086 1 5V27C1 29.2091 2.79086 31 5 31V33ZM29 0V32V0Z" fill="#3A342B" mask="url(#path-3-inside-2_101_308)"/>
<path d="M40.52 22V10.32H47.4V11.632H41.928V15.504H46.984V16.816H41.96V22H40.52ZM53.3938 22.128C52.6898 22.128 52.0764 21.9893 51.5538 21.712C51.0418 21.4347 50.6418 21.0347 50.3538 20.512C50.0764 19.9787 49.9378 19.344 49.9378 18.608V16.592C49.9378 15.8453 50.0764 15.2107 50.3538 14.688C50.6418 14.1653 51.0418 13.7653 51.5538 13.488C52.0764 13.2107 52.6898 13.072 53.3938 13.072C54.1084 13.072 54.7218 13.2107 55.2338 13.488C55.7458 13.7653 56.1404 14.1653 56.4178 14.688C56.7058 15.2107 56.8498 15.8453 56.8498 16.592V18.608C56.8498 19.344 56.7058 19.9787 56.4178 20.512C56.1404 21.0347 55.7404 21.4347 55.2178 21.712C54.7058 21.9893 54.0978 22.128 53.3938 22.128ZM53.3938 20.848C54.0231 20.848 54.5138 20.672 54.8658 20.32C55.2284 19.968 55.4098 19.4507 55.4098 18.768V16.432C55.4098 15.7493 55.2284 15.232 54.8658 14.88C54.5138 14.528 54.0231 14.352 53.3938 14.352C52.7751 14.352 52.2844 14.528 51.9218 14.88C51.5591 15.232 51.3778 15.7493 51.3778 16.432V18.768C51.3778 19.4507 51.5591 19.968 51.9218 20.32C52.2844 20.672 52.7751 20.848 53.3938 20.848ZM59.9795 22V13.2H61.4195V14.88H61.7235L61.4195 15.264C61.4195 14.5813 61.6275 14.0427 62.0435 13.648C62.4702 13.2427 63.0568 13.04 63.8035 13.04C64.7208 13.04 65.4248 13.3173 65.9155 13.872C66.4168 14.416 66.6675 15.1947 66.6675 16.208V16.96H65.2275V16.208C65.2275 15.5573 65.0675 15.0773 64.7475 14.768C64.4275 14.448 63.9635 14.288 63.3555 14.288C62.7262 14.288 62.2462 14.4693 61.9155 14.832C61.5848 15.1947 61.4195 15.7173 61.4195 16.4V22H59.9795ZM69.3333 22V10.32H70.7733V16.832H72.4533L74.9173 13.2H76.5653L73.7333 17.392L76.7253 22H75.0453L72.4852 18.08H70.7733V22H69.3333Z" fill="#3A342B"/>
<path d="M10.1667 13.3893C11.3633 13.3893 12.3333 12.4067 12.3333 11.1946C12.3333 9.98258 11.3633 9 10.1667 9C8.97005 9 8 9.98258 8 11.1946C8 12.4067 8.97005 13.3893 10.1667 13.3893Z" stroke="#6C6862" stroke-linecap="round" stroke-linejoin="round"/>
<path d="M18.8334 13.3893C20.03 13.3893 21.0001 12.4067 21.0001 11.1946C21.0001 9.98258 20.03 9 18.8334 9C17.6368 9 16.6667 9.98258 16.6667 11.1946C16.6667 12.4067 17.6368 13.3893 18.8334 13.3893Z" stroke="#6C6862" stroke-linecap="round" stroke-linejoin="round"/>
<path d="M14.4999 24C15.6965 24 16.6666 23.0174 16.6666 21.8054C16.6666 20.5933 15.6965 19.6107 14.4999 19.6107C13.3033 19.6107 12.3333 20.5933 12.3333 21.8054C12.3333 23.0174 13.3033 24 14.4999 24Z" stroke="#6C6862" stroke-linecap="round" stroke-linejoin="round"/>
<path d="M10.1479 13.4656V15.603C10.1479 16.4462 10.8228 17.1298 11.6552 17.1298H14.6697M14.6697 17.1298H17.6842C18.5166 17.1298 19.1914 16.4462 19.1914 15.603V13.4656M14.6697 17.1298V19.4198" stroke="#6C6862"/>
<path d="M28.5 31L28.5 1" stroke="#CFCBC2"/>
</g>
<defs>
<linearGradient id="paint0_linear_101_308" x1="27.188" y1="28.7203" x2="-3.28813" y2="24.2" gradientUnits="userSpaceOnUse">
<stop stop-color="#F8F6EC"/>
<stop offset="1" stop-color="white"/>
<stop offset="1" stop-color="#FEFDFB"/>
</linearGradient>
<clipPath id="clip0_101_308">
<rect width="113" height="33" fill="white"/>
</clipPath>
</defs>
</svg>
