<svg xmlns="http://www.w3.org/2000/svg" fill="none" viewBox="0 0 2414 225"><g clip-path="url(#a)"><path fill="url(#b)" d="M0 30A30 30 0 0 1 30 0h2354a30 30 0 0 1 30 30v165a30 30 0 0 1-30 30H30a30 30 0 0 1-30-30V30Z"/><rect width="2413" height="224" x=".5" y=".5" stroke="#3A342B" stroke-opacity=".3" rx="29.5"/><mask id="c" fill="#fff"><path d="M1565.3 74H1734a5 5 0 0 1 5 5v65a5 5 0 0 1-5 5h-168.8V74Z"/></mask><path fill="#fff" d="M1565.3 74H1734a5 5 0 0 1 5 5v65a5 5 0 0 1-5 5h-168.8V74Z"/><path fill="#3A342B" d="M1565.3 71H1734a8 8 0 0 1 8 8h-6a2 2 0 0 0-2-2h-168.8v-6Zm176.7 73a8 8 0 0 1-8 8h-168.8v-6H1734a2 2 0 0 0 2-2h6Zm-176.8 5V74v75ZM1734 71a8 8 0 0 1 8 8v65a8 8 0 0 1-8 8v-6a2 2 0 0 0 2-2V79a2 2 0 0 0-2-2v-6Z" mask="url(#c)"/><mask id="e" fill="#fff"><path d="M1499 79a5 5 0 0 1 5-5h63v75h-63a5 5 0 0 1-5-5V79Z"/></mask><path fill="url(#d)" d="M1499 79a5 5 0 0 1 5-5h63v75h-63a5 5 0 0 1-5-5V79Z"/><path fill="#3A342B" d="M1496 79a8 8 0 0 1 8-8h63v6h-63a2 2 0 0 0-2 2h-6Zm71 73h-63a8 8 0 0 1-8-8h6c0 1.1.9 2 2 2h63v6Zm-63 0a8 8 0 0 1-8-8V79a8 8 0 0 1 8-8v6a2 2 0 0 0-2 2v65c0 1.1.9 2 2 2v6Zm63-78v75-75Z" mask="url(#e)"/><path fill="#3A342B" d="M1587.5 124.8v-27h16v3h-12.7v9h11.7v3h-11.7v12h-3.3Zm29.8.3a9 9 0 0 1-4.3-1 6.8 6.8 0 0 1-2.7-2.7 9 9 0 0 1-1-4.4v-4.7c0-1.7.3-3.2 1-4.4a6.8 6.8 0 0 1 2.7-2.8 9 9 0 0 1 4.3-1c1.6 0 3 .4 4.2 1 1.2.7 2.1 1.6 2.8 2.8a9 9 0 0 1 1 4.4v4.7c0 1.7-.4 3.1-1 4.4a6.5 6.5 0 0 1-2.8 2.7c-1.2.7-2.6 1-4.2 1Zm0-3c1.4 0 2.6-.4 3.4-1.2a5 5 0 0 0 1.3-3.6V112c0-1.5-.5-2.7-1.3-3.6-.8-.8-2-1.2-3.4-1.2-1.5 0-2.6.4-3.4 1.2-.9.9-1.3 2-1.3 3.6v5.4c0 1.6.4 2.8 1.3 3.6.8.8 2 1.2 3.4 1.2Zm15.2 2.7v-20.3h3.3v3.8h.8l-.8 1a5 5 0 0 1 1.5-3.8c1-1 2.3-1.4 4-1.4 2.2 0 3.8.6 5 2 1.1 1.2 1.7 3 1.7 5.3v1.8h-3.3v-1.8c0-1.5-.4-2.6-1.2-3.3-.7-.8-1.8-1.1-3.2-1.1-1.4 0-2.5.4-3.3 1.2-.8.9-1.2 2-1.2 3.7v13h-3.3Zm21.7 0v-27h3.3v15h3.9l5.7-8.3h3.8l-6.6 9.7 7 10.6h-4l-5.9-9h-4v9h-3.3Z"/><path fill="#6C6862" fill-rule="evenodd" d="M1522.8 96.3a4 4 0 0 0-3.9 4 4 4 0 0 0 4 4 4 4 0 0 0 3.8-4 4 4 0 0 0-3.9-4Zm-6.2 4c0-3.5 2.8-6.4 6.2-6.4a6.3 6.3 0 0 1 1.1 12.5v4.2c0 1.3 1.1 2.4 2.4 2.4h14.2c1.2 0 2.3-1 2.3-2.4v-4c-3.3-.2-6-3-6-6.4 0-3.4 2.9-6.3 6.3-6.3a6.3 6.3 0 0 1 2 12.3v4.4c0 2.6-2 4.7-4.6 4.7h-6v3.7c2.8.7 4.7 3.2 4.7 6.1 0 3.5-2.8 6.3-6.2 6.3a6.3 6.3 0 0 1-6.3-6.3c0-3.2 2.4-5.9 5.5-6.3v-3.5h-5.9a4.7 4.7 0 0 1-4.7-4.7v-4.2c-2.9-.5-5-3.1-5-6.2Zm26.5-4a4 4 0 0 0-3.9 4 4 4 0 0 0 4 4 4 4 0 0 0 3.8-4 4 4 0 0 0-3.9-4ZM1533 121a4 4 0 0 0-4 4 4 4 0 0 0 4 4 4 4 0 0 0 3.9-4 4 4 0 0 0-4-4Z" clip-rule="evenodd"/><path stroke="#CFCBC2" stroke-width="3" d="M1565.8 146V77"/><path fill="#414141" d="M1777.1 125c-1.7 0-3-.5-4.1-1.5-1-1-1.6-2.4-1.6-4V108h-5.8v-3.3h5.8v-5.8h3.7v5.8h8.3v3.3h-8.3v11.4c0 .7.2 1.2.6 1.6.3.5.9.7 1.5.7h6v3.3h-6Zm20.2.3c-1.7 0-3.1-.3-4.3-1a6.8 6.8 0 0 1-2.9-2.7c-.6-1.3-1-2.7-1-4.4v-4.7a9 9 0 0 1 1-4.4 6.8 6.8 0 0 1 2.9-2.8c1.2-.6 2.6-1 4.3-1a9 9 0 0 1 4.3 1c1.2.7 2.2 1.6 2.8 2.8a9 9 0 0 1 1 4.4v4.7a9 9 0 0 1-1 4.4 6.8 6.8 0 0 1-2.8 2.7 9 9 0 0 1-4.3 1Zm0-3.2c1.4 0 2.5-.4 3.3-1.2.8-.8 1.2-2 1.2-3.4v-5.3c0-1.5-.4-2.7-1.2-3.4a4.5 4.5 0 0 0-3.3-1.2c-1.4 0-2.5.4-3.3 1.2-.8.7-1.2 1.9-1.2 3.4v5.3c0 1.5.4 2.6 1.2 3.4.8.8 1.9 1.2 3.3 1.2Zm44.7 3.3c-1.7 0-3.2-.3-4.4-1a7 7 0 0 1-2.9-2.7c-.7-1.1-1-2.5-1-4.2v-5.4c0-1.6.3-3 1-4.2.7-1.2 1.6-2 2.9-2.7 1.2-.6 2.7-1 4.4-1 2.3 0 4.3.7 5.7 2a7 7 0 0 1 2.4 5.2h-3.7c0-1.2-.5-2.2-1.3-2.9a5 5 0 0 0-3.1-1c-1.5 0-2.6.4-3.4 1.2-.8.8-1.2 2-1.2 3.4v5.4c0 1.5.4 2.6 1.2 3.4.8.8 2 1.2 3.4 1.2 1.3 0 2.3-.3 3.1-1a4 4 0 0 0 1.3-2.8h3.7a7 7 0 0 1-2.4 5.2 8.5 8.5 0 0 1-5.8 1.9Zm14.7-.4v-20.3h3.7v4h.8l-.8.8a5 5 0 0 1 1.4-3.8c1-1 2.4-1.4 4.1-1.4 2.1 0 3.8.6 4.9 1.9a7.9 7.9 0 0 1 1.7 5.5v1.8h-3.6v-1.8c0-1.4-.4-2.5-1.1-3.2-.7-.7-1.8-1-3.1-1-1.4 0-2.5.4-3.2 1.2-.7.8-1.1 2-1.1 3.5V125h-3.7Zm29.3.4c-1.6 0-3-.4-4.3-1a7.2 7.2 0 0 1-2.8-2.8 9 9 0 0 1-1-4.4v-4.8c0-1.7.3-3.1 1-4.3a7 7 0 0 1 2.8-2.8c1.3-.7 2.7-1 4.3-1a9 9 0 0 1 4.3 1c1.2.6 2.2 1.5 2.8 2.7a8 8 0 0 1 1 4.1v3.7h-12.6v1.7c0 1.5.4 2.7 1.2 3.5.8.8 2 1.3 3.3 1.3 1.2 0 2.2-.3 3-.7.7-.4 1.2-1 1.3-1.9h3.7a6.1 6.1 0 0 1-2.6 4.2 9.3 9.3 0 0 1-5.4 1.5Zm4.6-12V112c0-1.6-.4-2.8-1.2-3.6-.8-.8-2-1.3-3.4-1.3s-2.5.5-3.3 1.3a5 5 0 0 0-1.2 3.6v1h9.4l-.3.3Zm15.7 12a7 7 0 0 1-5-1.8 6.2 6.2 0 0 1-1.8-4.6c0-1.3.3-2.4.9-3.3a6 6 0 0 1 2.4-2.2c1-.5 2.3-.8 3.6-.8h6V111a4 4 0 0 0-1-2.8c-.7-.6-1.8-1-3.2-1-1.2 0-2.2.3-3 .8-.7.4-1 1-1.1 1.9h-3.7c.2-1.7 1-3 2.3-4a8 8 0 0 1 5.5-1.7c2.6 0 4.5.6 5.8 1.8 1.4 1.2 2 2.8 2 5v14h-3.6v-3.7h-.6l.6-.8c0 1-.2 1.9-.7 2.6-.5.7-1.2 1.3-2.1 1.7-1 .4-2 .6-3.3.6Zm1-3.1a6 6 0 0 0 3.7-1.1c1-.8 1.4-1.8 1.4-3.1v-2.7h-5.6c-1 0-2 .3-2.6 1-.7.6-1 1.4-1 2.4s.4 2 1 2.6c.8.6 1.8.9 3 .9Zm25.1 2.7c-1.7 0-3-.5-4.2-1.5-1-1-1.5-2.4-1.5-4V108h-5.8v-3.3h5.8v-5.8h3.7v5.8h8.3v3.3h-8.3v11.4c0 .7.2 1.2.5 1.6.4.5 1 .7 1.6.7h6v3.3h-6Zm20.2.4c-1.6 0-3-.4-4.3-1a7.2 7.2 0 0 1-2.9-2.8c-.6-1.2-1-2.7-1-4.4v-4.8a9 9 0 0 1 1-4.3 7 7 0 0 1 2.9-2.8 9 9 0 0 1 4.3-1 9 9 0 0 1 4.2 1c1.3.6 2.2 1.5 2.9 2.7a8 8 0 0 1 1 4.1v3.7H1948v1.7c0 1.5.4 2.7 1.3 3.5.8.8 1.9 1.3 3.3 1.3 1.1 0 2.1-.3 2.9-.7.8-.4 1.2-1 1.4-1.9h3.6a5.8 5.8 0 0 1-2.5 4.2 9.3 9.3 0 0 1-5.4 1.5Zm4.5-12V112c0-1.6-.4-2.8-1.1-3.6-.8-.8-2-1.3-3.4-1.3-1.5 0-2.6.5-3.4 1.3a5 5 0 0 0-1.2 3.6v1h9.4l-.3.3Zm35.2 18.3 3-8-7.6-19h3.9l4.6 12a42 42 0 0 1 1 3.2l.3-1.6.6-1.6 4.3-12h3.8l-10 27h-3.9Zm26.8-6.4c-1.6 0-3-.3-4.3-1a6.8 6.8 0 0 1-2.8-2.7 9 9 0 0 1-1-4.4v-4.7a9 9 0 0 1 1-4.4 6.8 6.8 0 0 1 2.8-2.8 10 10 0 0 1 8.7 0c1.2.7 2.1 1.6 2.8 2.8a9 9 0 0 1 1 4.4v4.7a9 9 0 0 1-1 4.4 6.7 6.7 0 0 1-2.9 2.7 9 9 0 0 1-4.3 1Zm0-3.2c1.5 0 2.5-.4 3.3-1.2.8-.8 1.2-2 1.2-3.4v-5.3c0-1.5-.4-2.7-1.2-3.4a4.4 4.4 0 0 0-3.3-1.2c-1.3 0-2.4.4-3.3 1.2-.7.7-1.1 1.9-1.1 3.4v5.3a5 5 0 0 0 1.1 3.4c.9.8 2 1.2 3.3 1.2Zm22.2 3.3c-2.4 0-4.3-.7-5.8-2.1a7.7 7.7 0 0 1-2-5.8v-12.8h3.6v12.8a5 5 0 0 0 1 3.4 4 4 0 0 0 3.2 1.3 4 4 0 0 0 3.1-1.3c.8-.8 1.2-2 1.2-3.4v-12.8h3.6v12.8a8 8 0 0 1-2.1 5.8 8 8 0 0 1-5.8 2Zm15.1-.4v-20.3h3.6v4h.9l-.9.8a5 5 0 0 1 1.5-3.8c1-1 2.4-1.4 4-1.4 2.2 0 3.8.6 5 1.9a7.9 7.9 0 0 1 1.7 5.5v1.8h-3.7v-1.8c0-1.4-.3-2.5-1-3.2-.7-.7-1.8-1-3.1-1-1.4 0-2.5.4-3.2 1.2-.8.8-1.1 2-1.1 3.5V125h-3.7Zm51.5.3c-1.7 0-3.1-.3-4.3-1a6.8 6.8 0 0 1-2.9-2.7c-.6-1.3-1-2.7-1-4.4v-4.7a9 9 0 0 1 1-4.4 6.8 6.8 0 0 1 2.9-2.8c1.2-.6 2.6-1 4.3-1 1.7 0 3.1.4 4.3 1 1.2.7 2.2 1.6 2.8 2.8a9 9 0 0 1 1 4.4v4.7a9 9 0 0 1-1 4.4 6.7 6.7 0 0 1-2.8 2.7 9 9 0 0 1-4.3 1Zm0-3.2c1.4 0 2.5-.4 3.3-1.2.8-.8 1.2-2 1.2-3.4v-5.3c0-1.5-.4-2.7-1.2-3.4a4.5 4.5 0 0 0-3.3-1.2c-1.4 0-2.5.4-3.3 1.2-.8.7-1.2 1.9-1.2 3.4v5.3c0 1.5.4 2.6 1.2 3.4.8.8 1.9 1.2 3.3 1.2Zm15.4 2.9-3.3-20.3h3l2 13.8c.2.6.2 1.3.3 2l.1 1.8a50.6 50.6 0 0 0 .5-3.8l2.4-13.8h3.5l2.4 13.8a22.5 22.5 0 0 1 .5 3.8l.2-1.8.2-2 2.1-13.8h3l-3.5 20.3h-3.9l-2.3-13.7a177.1 177.1 0 0 1-.4-4.1l-.1 1.1-.2 1.6-.3 1.4-2.3 13.7h-4Zm21.1 0v-20.3h3.6v3.8h.9l-.9.9c0-1.6.5-2.9 1.5-3.8 1-.9 2.3-1.3 4-1.3 2 0 3.7.6 4.9 1.9 1.2 1.3 1.8 3 1.8 5.2V125h-3.7v-13a5 5 0 0 0-1.1-3.4 4 4 0 0 0-3-1.2 4 4 0 0 0-3.2 1.2 5 5 0 0 0-1.1 3.5V125h-3.7Zm43.2 0v-20.3h3.1v2.7h.8l-.7.6c0-1 .3-2 1-2.7a3 3 0 0 1 2.4-1c1.2 0 2.1.4 2.8 1.3.7.9 1 2 1 3.4l-.9-1.7h1.5l-.8.7c0-1.1.3-2 1-2.7.6-.7 1.5-1 2.5-1 1.3 0 2.4.5 3.1 1.5.8 1 1.2 2.2 1.2 3.7V125h-3.3v-15.4c0-.8-.2-1.4-.6-1.8-.4-.5-.9-.7-1.5-.7-.7 0-1.2.2-1.5.6-.4.5-.6 1-.6 1.9V125h-3v-15.4c0-.8-.1-1.4-.5-1.8-.4-.5-.9-.7-1.5-.7a2 2 0 0 0-1.6.6c-.3.5-.5 1-.5 1.9V125h-3.4Zm31.2.3c-1.6 0-3-.3-4.3-1a6.8 6.8 0 0 1-2.8-2.7 9 9 0 0 1-1-4.4v-4.7a9 9 0 0 1 1-4.4 6.8 6.8 0 0 1 2.8-2.8 9.7 9.7 0 0 1 8.6 0c1.3.7 2.2 1.6 2.8 2.8a9 9 0 0 1 1 4.4v4.7a9 9 0 0 1-1 4.4 6.7 6.7 0 0 1-2.8 2.7 9 9 0 0 1-4.3 1Zm0-3.2c1.4 0 2.5-.4 3.3-1.2.8-.8 1.2-2 1.2-3.4v-5.3c0-1.5-.4-2.7-1.2-3.4a4.4 4.4 0 0 0-3.3-1.2c-1.4 0-2.5.4-3.3 1.2-.8.7-1.2 1.9-1.2 3.4v5.3c0 1.5.4 2.6 1.2 3.4.8.8 2 1.2 3.3 1.2Zm14.3 2.9v-20.3h3.7v3.8h.8l-.8.9c0-1.6.5-2.9 1.4-3.8 1-.9 2.4-1.3 4-1.3 2 0 3.7.6 4.9 1.9 1.2 1.3 1.8 3 1.8 5.2V125h-3.7v-13c0-1.5-.3-2.6-1-3.4a4 4 0 0 0-3-1.2 4 4 0 0 0-3.2 1.2 5 5 0 0 0-1.2 3.5V125h-3.7Zm30 .3c-1.6 0-3-.3-4.3-1a6.8 6.8 0 0 1-2.8-2.7c-.6-1.3-1-2.7-1-4.4v-4.7a9 9 0 0 1 1-4.4 6.8 6.8 0 0 1 2.8-2.8 10.2 10.2 0 0 1 8.7 0c1.2.7 2.2 1.6 2.8 2.8a9 9 0 0 1 1 4.4v4.7a9 9 0 0 1-1 4.4 6.7 6.7 0 0 1-2.8 2.7 9 9 0 0 1-4.3 1Zm0-3.2c1.5 0 2.6-.4 3.4-1.2.8-.8 1.2-2 1.2-3.4v-5.3c0-1.5-.4-2.7-1.2-3.4a4.5 4.5 0 0 0-3.3-1.2c-1.4 0-2.5.4-3.3 1.2-.8.7-1.2 1.9-1.2 3.4v5.3c0 1.5.4 2.6 1.2 3.4.8.8 1.9 1.2 3.3 1.2Zm15.2 2.9v-20.3h3.6v4h.8l-.8.8a5 5 0 0 1 1.5-3.8c1-1 2.3-1.4 4-1.4 2.2 0 3.8.6 5 1.9a7.9 7.9 0 0 1 1.7 5.5v1.8h-3.7v-1.8c0-1.4-.4-2.5-1-3.2-.8-.7-1.8-1-3.2-1-1.4 0-2.4.4-3.2 1.2-.7.8-1 2-1 3.5V125h-3.7Zm29.3.4c-1.7 0-3.1-.4-4.3-1a7.2 7.2 0 0 1-2.9-2.8c-.7-1.2-1-2.7-1-4.4v-4.8a9 9 0 0 1 1-4.3 7 7 0 0 1 2.9-2.8c1.2-.7 2.6-1 4.3-1a9 9 0 0 1 4.2 1c1.2.6 2.2 1.5 2.9 2.7a8 8 0 0 1 1 4.1v3.7H2303v1.7c0 1.5.4 2.7 1.2 3.5a5 5 0 0 0 3.4 1.3c1.1 0 2-.3 2.8-.7.8-.4 1.3-1 1.4-1.9h3.7a5.8 5.8 0 0 1-2.5 4.2 9.3 9.3 0 0 1-5.4 1.5Zm4.5-12V112c0-1.6-.4-2.8-1.2-3.6a4.5 4.5 0 0 0-3.3-1.3c-1.5 0-2.6.5-3.4 1.3a5 5 0 0 0-1.2 3.6v1h9.4l-.3.3Zm9.8 18.3v-27h3.6v4h.8l-.9 1c0-1.7.5-3 1.6-4 1-1 2.4-1.4 4.1-1.4a6 6 0 0 1 3.5 1 6 6 0 0 1 2.3 2.6 9 9 0 0 1 .9 4v5.8c0 1.6-.3 3-.9 4a5.6 5.6 0 0 1-2.3 2.7c-1 .7-2.1 1-3.5 1-1.7 0-3-.5-4.1-1.5-1-1-1.6-2.3-1.6-4l.9 1.2h-.8v10.6h-3.6Zm8-9.5c1.3 0 2.3-.4 3-1 .8-.8 1.2-2 1.2-3.5V112c0-1.5-.4-2.7-1.1-3.4-.8-.7-1.8-1-3.2-1a4 4 0 0 0-3.1 1.2c-.8.8-1.1 2-1.1 3.4v5.4a5 5 0 0 0 1.1 3.5 4 4 0 0 0 3.1 1.2Zm22 3.1c-1.6 0-3-.3-4.3-1a6.8 6.8 0 0 1-2.8-2.7 9 9 0 0 1-1-4.4v-4.7a9 9 0 0 1 1-4.4 6.8 6.8 0 0 1 2.8-2.8 9.7 9.7 0 0 1 8.6 0c1.3.7 2.2 1.6 2.9 2.8a9 9 0 0 1 1 4.4v4.7c0 1.7-.4 3.1-1 4.4a6.8 6.8 0 0 1-2.9 2.7 9 9 0 0 1-4.3 1Zm0-3.2c1.4 0 2.5-.4 3.3-1.2.8-.8 1.2-2 1.2-3.4v-5.3c0-1.5-.4-2.7-1.2-3.4a4.5 4.5 0 0 0-3.3-1.2c-1.4 0-2.5.4-3.3 1.2-.8.7-1.2 1.9-1.2 3.4v5.3c0 1.5.4 2.6 1.2 3.4.8.8 2 1.2 3.3 1.2Z"/><path fill="#8D8979" d="M224.2 166v-35h14.2c2 0 3.7.4 5.2 1.1a8 8 0 0 1 3.5 3 8.7 8.7 0 0 1 1.2 4.7c0 2-.6 3.6-1.7 5a8.6 8.6 0 0 1-4.5 2.8l-.1-.9c1.6.3 3 .9 4.3 1.8a8.9 8.9 0 0 1 3.8 7.2c0 1.6-.3 3-.8 4.3a9 9 0 0 1-2.3 3.2c-1 .9-2.2 1.6-3.6 2.1-1.3.5-2.8.7-4.6.7h-14.7Zm3.9-3.8h10.5c1.5 0 2.8-.3 3.8-.8a6 6 0 0 0 2.6-8.8 6.2 6.2 0 0 0-2.7-2 9.8 9.8 0 0 0-4-.8H228v12.4Zm0-16.1h10a7 7 0 0 0 3.2-.8 5 5 0 0 0 2.1-2c.6-.8.8-1.8.8-2.9 0-1.7-.5-3-1.7-4a6.9 6.9 0 0 0-4.8-1.6h-9.6v11.3Zm38.2 20.4c-2.2 0-4.3-.6-6.1-1.8a12.8 12.8 0 0 1-4.4-4.8 15 15 0 0 1-1.6-7 13.6 13.6 0 0 1 6.1-11.8 11.6 11.6 0 0 1 10-1.2c1.2.4 2.2 1 3.1 1.8 1 .7 1.7 1.5 2.3 2.5.7.9 1.1 1.9 1.3 3l-1-.5.1-6.8h3.7V166H276v-6.4l1-.7c-.2 1-.6 2-1.3 3a11 11 0 0 1-2.5 2.3 11.2 11.2 0 0 1-6.9 2.3Zm.9-3.6a8 8 0 0 0 4.6-1.3 9 9 0 0 0 3.2-3.5 11 11 0 0 0 1.2-5.2c0-2-.4-3.7-1.2-5.2a8.5 8.5 0 0 0-7.8-4.8 8.6 8.6 0 0 0-7.9 4.9c-.8 1.4-1.2 3.2-1.2 5.1 0 1.9.4 3.6 1.2 5.2a8.6 8.6 0 0 0 7.9 4.8Zm28.5 3.6a14 14 0 0 1-6-1.3 11 11 0 0 1-4.2-3.3l2.7-2.3a9.6 9.6 0 0 0 7.8 3.6c.8 0 1.6 0 2.3-.3.6-.2 1.2-.4 1.7-.8s.9-.8 1.2-1.3c.2-.5.4-1 .4-1.7 0-1-.5-2-1.5-2.7l-1.8-.9-3-1a27 27 0 0 1-4.6-1.6 9.4 9.4 0 0 1-2.9-1.9c-.5-.6-.9-1.3-1.1-2a7.2 7.2 0 0 1 .3-5.2c.4-.9 1-1.7 1.9-2.4.8-.7 1.8-1.2 2.9-1.5 1-.4 2.3-.6 3.6-.6a13.6 13.6 0 0 1 7 2c1 .6 2 1.4 2.7 2.3l-2.3 2.5-2.1-1.8a10 10 0 0 0-2.5-1.3c-.8-.3-1.7-.4-2.6-.4-.8 0-1.5 0-2.2.3a5 5 0 0 0-1.8.8c-.5.3-.8.8-1.1 1.3-.2.4-.3 1-.3 1.6a3 3 0 0 0 1.1 2.4 8 8 0 0 0 2 1c.8.3 1.9.7 3.2 1a22.5 22.5 0 0 1 6.2 2.7c.9.7 1.5 1.4 1.9 2.3.4.9.6 1.8.6 3 0 1.4-.4 2.7-1.2 3.8-.8 1.2-2 2-3.4 2.8-1.4.6-3 .9-4.9.9Zm26.9 0c-2.6 0-5-.6-7-1.7s-3.5-2.7-4.7-4.8c-1.1-2-1.7-4.3-1.7-7 0-2 .3-3.8 1-5.4a12 12 0 0 1 6.8-7.2 12.8 12.8 0 0 1 10-.1 10.8 10.8 0 0 1 6.1 6.6c.6 1.5.8 3.2.7 5v1.8H312l-.5-3.2h19.4l-.9.8v-1.2a7.7 7.7 0 0 0-7.8-7.2c-1.9 0-3.5.4-4.9 1.2a7.4 7.4 0 0 0-3.1 3.3c-.8 1.4-1.1 3.2-1.1 5.4 0 2 .4 3.9 1.2 5.4.8 1.5 2 2.7 3.4 3.5a11 11 0 0 0 5.4 1.3 11.5 11.5 0 0 0 7.6-3.2l2 2.8c-.7.7-1.7 1.4-2.7 2-1 .6-2.3 1-3.5 1.4-1.3.3-2.6.5-4 .5Zm30.5-.5v-26.1h3.8v6l-.7.2c.3-1 .7-1.9 1.3-2.7a9.8 9.8 0 0 1 5.1-3.5 10.5 10.5 0 0 1 7 .2c1 .4 2 1.2 2.7 2.3.7 1 1.3 2.5 1.7 4.3l-.9-.5.4-.8a8 8 0 0 1 1.4-2.3c.7-.7 1.4-1.3 2.3-1.9a9 9 0 0 1 2.8-1.3c1-.3 2-.5 3.1-.5 1.9 0 3.4.4 4.7 1.2a7 7 0 0 1 2.8 3.6 16 16 0 0 1 1 6V166h-3.8v-15.6c0-1.7-.2-3.1-.7-4.2-.4-1.1-1-2-2-2.4a5 5 0 0 0-3.1-.9 8.2 8.2 0 0 0-5.6 2.2 8 8 0 0 0-1.6 2.3c-.4.9-.6 1.8-.6 2.8V166h-3.8v-15.6c0-1.7-.2-3-.7-4.2-.4-1-1-1.9-2-2.4-.8-.6-1.9-.9-3.1-.9-1.1 0-2.1.2-3 .6-1 .4-1.8.9-2.5 1.6a8 8 0 0 0-1.6 2.3c-.4.8-.6 1.8-.6 2.8V166h-3.8Zm57.2.5c-2.6 0-5-.6-7-1.8-2-1.1-3.6-2.7-4.7-4.8-1.2-2-1.7-4.4-1.7-7a12.9 12.9 0 0 1 13.4-13.5 13 13 0 0 1 11.6 6.5c1.1 2 1.7 4.3 1.7 7 0 2.6-.6 5-1.7 7a13.3 13.3 0 0 1-11.6 6.6Zm0-3.6c1.8 0 3.4-.4 4.9-1.3a9.4 9.4 0 0 0 3.3-3.5 11 11 0 0 0 1.2-5.3c0-1.9-.4-3.6-1.2-5.1a9.1 9.1 0 0 0-8.3-4.8c-1.8 0-3.4.4-4.9 1.3a9 9 0 0 0-3.4 3.6 9 9 0 0 0-1.1 5c0 2 .3 3.7 1.1 5.3.9 1.5 2 2.7 3.4 3.6 1.5.8 3.1 1.3 5 1.3ZM429 166v-26.1h3.7l.1 5.4-.6.3a7 7 0 0 1 2-3.1 11.3 11.3 0 0 1 7.6-3.2c2 0 3.6.4 4.9 1.2 1.3.8 2.3 2 3 3.6a16 16 0 0 1 1 6V166h-3.9v-15.7a11 11 0 0 0-.7-4.2c-.4-1.1-1-2-2-2.5s-2-.8-3.5-.8a8.2 8.2 0 0 0-5.6 2.2 6.6 6.6 0 0 0-2.3 5.1V166H429Zm40.4.5c-2.6 0-5-.6-7-1.8-2-1.1-3.6-2.7-4.7-4.8-1.2-2-1.7-4.4-1.7-7a12.9 12.9 0 0 1 13.4-13.5 13 13 0 0 1 11.6 6.5c1.1 2 1.7 4.3 1.7 7 0 2.6-.6 5-1.7 7a13.3 13.3 0 0 1-11.6 6.6Zm0-3.6c1.8 0 3.4-.4 4.9-1.3a9.4 9.4 0 0 0 3.3-3.5 11 11 0 0 0 1.2-5.3c0-1.9-.4-3.6-1.2-5.1-.8-1.5-2-2.7-3.3-3.5a9.3 9.3 0 0 0-5-1.3c-1.8 0-3.4.4-4.9 1.3a9 9 0 0 0-3.4 3.6 9 9 0 0 0-1.1 5c0 2 .3 3.7 1.1 5.3.8 1.5 2 2.7 3.4 3.6 1.5.8 3.1 1.3 5 1.3Zm18.8 3.1v-26.1h3.7l.1 7-.4-1a9.7 9.7 0 0 1 4.7-5.7 7.9 7.9 0 0 1 5.4-.7c.5 0 .9.2 1.2.3l-1 4.2-1.4-.4-1.2-.2c-1.2 0-2.2.3-3 .7-1 .3-1.7 1-2.4 1.7-.6.6-1 1.5-1.4 2.4-.4 1-.5 2-.5 3V166h-3.8Zm29 .5c-2.6 0-5-.6-7-1.7s-3.5-2.7-4.6-4.8c-1.2-2-1.7-4.3-1.7-7 0-2 .3-3.8.9-5.4a12 12 0 0 1 6.8-7.2 12.8 12.8 0 0 1 10-.1c1.5.6 2.7 1.5 3.8 2.6 1 1.1 1.8 2.4 2.4 4 .5 1.5.7 3.2.7 5l-.1 1.8h-21.7l-.6-3.2h19.5l-1 .8v-1.2a7.7 7.7 0 0 0-3.7-6.2c-1.1-.7-2.5-1-4.1-1a9 9 0 0 0-4.8 1.2 7.4 7.4 0 0 0-3.2 3.3 12 12 0 0 0-1.1 5.4c0 2 .4 3.9 1.2 5.4.8 1.5 2 2.7 3.4 3.5a11 11 0 0 0 5.4 1.3c1.2 0 2.5-.3 3.7-.7 1.2-.4 2.5-1.2 4-2.5l2 2.8c-.8.7-1.7 1.4-2.8 2a15.3 15.3 0 0 1-7.4 1.9Zm16.6 10.5v-37.1h3.7l.1 6.3-.7.2c.3-1.3 1-2.5 2-3.5a11 11 0 0 1 8.2-3.5c2.3 0 4.4.6 6.2 1.8 1.9 1.1 3.4 2.7 4.5 4.8 1 2 1.6 4.3 1.6 7a14 14 0 0 1-1.6 6.9c-1 2-2.5 3.7-4.4 4.8a11.6 11.6 0 0 1-11 .8c-1.4-.7-2.6-1.5-3.7-2.6a8.3 8.3 0 0 1-2-3.6h.9V177h-3.8Zm12.7-14.1c1.8 0 3.4-.4 4.7-1.3 1.4-.9 2.5-2 3.3-3.5a11 11 0 0 0 1.2-5.2c0-1.9-.4-3.6-1.2-5.1a9.3 9.3 0 0 0-3.3-3.6 9 9 0 0 0-4.7-1.3 8.8 8.8 0 0 0-8 4.8c-.8 1.6-1.2 3.3-1.2 5.2 0 2 .4 3.7 1.2 5.2a8.8 8.8 0 0 0 8 4.8Zm30 3.6a13.3 13.3 0 0 1-11.8-6.6c-1.1-2-1.7-4.4-1.7-7a12.9 12.9 0 0 1 13.4-13.5 12.7 12.7 0 0 1 11.6 6.5c1.2 2 1.8 4.3 1.8 7a13.5 13.5 0 0 1-6.5 11.8c-2 1.2-4.3 1.8-6.9 1.8Zm0-3.6c1.8 0 3.4-.4 4.8-1.3a9.4 9.4 0 0 0 3.4-3.5 11 11 0 0 0 1.2-5.3c0-1.9-.4-3.6-1.2-5.1a9.3 9.3 0 0 0-8.3-4.8c-1.8 0-3.4.4-5 1.3a9 9 0 0 0-3.3 3.6 10 10 0 0 0-1.2 5c0 2 .4 3.7 1.2 5.3.8 1.5 2 2.7 3.4 3.6 1.5.8 3.1 1.3 5 1.3Zm35.8 3.1v-30.2c0-1.3.3-2.4.8-3.4a6 6 0 0 1 2.4-2.3c1-.7 2.3-1 3.7-1 1 0 2 .3 2.9.7.8.3 1.6.8 2.1 1.5l-1.3 3c-.5-.6-1.1-1-1.7-1.3a4.3 4.3 0 0 0-3.6 0c-.5.3-1 .7-1.2 1.2a4 4 0 0 0-.3 1.7V166h-3.8Zm-4.7-22.4v-3.5h15.1v3.5h-15Zm31.1 22.9c-2.6 0-4.9-.6-7-1.8a12 12 0 0 1-4.7-4.8c-1.1-2-1.7-4.4-1.7-7a12.9 12.9 0 0 1 13.4-13.5 12.7 12.7 0 0 1 11.6 6.5c1.2 2 1.8 4.3 1.8 7a13.5 13.5 0 0 1-6.5 11.8c-2 1.2-4.3 1.8-6.9 1.8Zm0-3.6c1.9 0 3.5-.4 5-1.3a9.4 9.4 0 0 0 3.3-3.5 11 11 0 0 0 1.2-5.3c0-1.9-.4-3.6-1.2-5.1a9.3 9.3 0 0 0-8.3-4.8c-1.8 0-3.4.4-5 1.3a9 9 0 0 0-3.3 3.6 10 10 0 0 0-1.2 5c0 2 .4 3.7 1.2 5.3.8 1.5 2 2.7 3.4 3.6 1.5.8 3.1 1.3 5 1.3Zm18.9 3.1v-26.1h3.7l.1 7-.4-1a9.7 9.7 0 0 1 4.7-5.7 7.9 7.9 0 0 1 5.4-.7c.5 0 .9.2 1.2.3l-1 4.2-1.4-.4-1.2-.2c-1.2 0-2.2.3-3 .7-1 .3-1.8 1-2.4 1.7-.6.6-1.1 1.5-1.4 2.4-.4 1-.5 2-.5 3V166h-3.8Zm35 0v-28.7c0-1.6.3-3 1-4.3a7.5 7.5 0 0 1 3-2.9 8.3 8.3 0 0 1 4.2-1.1 8.2 8.2 0 0 1 5.6 2.2l-1.9 4.6a5 5 0 0 0-1.4-.9 3 3 0 0 0-1.3-.3c-.7 0-1.3.2-1.7.4-.5.2-.8.5-1 1-.2.4-.3.9-.3 1.5V166h-6.1Zm-4.1-20.4v-5.4h16.2v5.4h-16.2Zm21.3 20.4v-26.3h6l.2 8.4-.9-2a10 10 0 0 1 5-6.1 8 8 0 0 1 5.4-.8l1.3.4-1.7 6.8c-.4-.3-.8-.4-1.3-.6l-1.6-.2a6 6 0 0 0-2.4.6c-.8.3-1.4.7-2 1.3-.6.5-1 1.2-1.3 2a6 6 0 0 0-.5 2.4V166h-6.2Zm32 .5a13.3 13.3 0 0 1-13.8-13.7c0-2.6.6-5 1.8-7a13.8 13.8 0 0 1 12-6.7 13.5 13.5 0 0 1 11.8 6.6c1.2 2.1 1.8 4.5 1.8 7.1 0 2.6-.6 5-1.8 7a13 13 0 0 1-11.8 6.7Zm0-5.4c1.4 0 2.7-.4 3.8-1.2a8.3 8.3 0 0 0 3.6-7.1c0-1.6-.3-3-1-4.3a7.2 7.2 0 0 0-6.4-4 7.2 7.2 0 0 0-6.6 4.1 9 9 0 0 0-1 4.2c0 1.6.4 3 1 4.2a7.2 7.2 0 0 0 6.5 4ZM761 166v-26.3h6l.1 5.4-1.1.6c.3-1.3 1-2.3 2-3.3a11 11 0 0 1 7.5-3.3c2 0 3.6.4 5 1.2 1.3.8 2.4 2 3 3.6a15 15 0 0 1 1 6V166h-6v-15.7c0-1.3-.3-2.4-.6-3.3-.4-.8-1-1.5-1.7-1.9a6 6 0 0 0-2.8-.6c-1 0-1.8.2-2.5.4-.8.3-1.4.7-2 1.3-.5.5-1 1-1.3 1.7-.3.7-.4 1.4-.4 2.2V166H761Zm33.3 0v-33h6.2v33h-6.2Zm-5.2-20.7v-5.7h17.1v5.8h-17Zm34 21.2a15 15 0 0 1-7.4-1.8 13 13 0 0 1-5-4.7c-1.1-2-1.7-4.3-1.7-7 0-2 .3-3.9 1-5.6a12 12 0 0 1 7-7.3 14 14 0 0 1 5.4-1 11.8 11.8 0 0 1 11.3 7.8c.6 1.6.9 3.3.8 5.2v2.1H813l-1-4.2h17.3l-.8.8v-1c0-1-.4-2-1-2.8a5.7 5.7 0 0 0-2.2-1.8 6 6 0 0 0-2.9-.7c-1.6 0-3 .3-4.1 1a6 6 0 0 0-2.5 2.7 10 10 0 0 0-.9 4.4 9 9 0 0 0 1 4.5 7.6 7.6 0 0 0 3.1 2.9c1.4.7 3 1 4.7 1a9.3 9.3 0 0 0 6.7-2.8l3 4.3c-.8.8-1.8 1.6-3 2.2a18.6 18.6 0 0 1-7.4 1.8Zm16.9-.5v-26.3h6v5.4l-1 .6c.3-1.3 1-2.3 1.9-3.3a11 11 0 0 1 7.5-3.3c2 0 3.7.4 5 1.2 1.4.8 2.4 2 3 3.6a15 15 0 0 1 1.1 6V166h-6.1v-15.7c0-1.3-.2-2.4-.6-3.3-.3-.8-.9-1.5-1.7-1.9-.7-.4-1.7-.6-2.8-.6-.9 0-1.7.2-2.5.4-.7.3-1.4.7-2 1.3a5.3 5.3 0 0 0-1.8 4V166h-6Zm41 .5a11.6 11.6 0 0 1-10.6-6.6c-1.1-2-1.6-4.4-1.6-7.1 0-2.6.5-5 1.6-7a12 12 0 0 1 4.3-4.9 11.4 11.4 0 0 1 10-1.2 11.2 11.2 0 0 1 5.4 3.9c.5.8.8 1.7.9 2.6l-1.6.2V129h6.1v37h-6l-.1-6.2 1.2.1a4 4 0 0 1-.9 2.4 9 9 0 0 1-2.1 2.1 11.4 11.4 0 0 1-6.5 2.1Zm1.3-5.2a7 7 0 0 0 3.8-1.1c1-.7 1.9-1.7 2.5-3a10.2 10.2 0 0 0 0-8.8 6.9 6.9 0 0 0-6.3-4c-1.5 0-2.7.3-3.8 1-1.1.8-2 1.8-2.6 3a10 10 0 0 0-1 4.4c0 1.7.4 3.1 1 4.4a7.6 7.6 0 0 0 2.6 3c1 .7 2.3 1.1 3.8 1.1Zm34.2 15.7v-37.1h3.8l.1 6.3-.7.2c.3-1.3 1-2.5 2-3.5a11 11 0 0 1 8.1-3.5c2.4 0 4.5.6 6.3 1.8 1.9 1.1 3.3 2.7 4.4 4.8 1.1 2 1.7 4.3 1.7 7a14 14 0 0 1-1.6 6.9c-1 2-2.5 3.7-4.4 4.8a11.6 11.6 0 0 1-11 .8c-1.4-.7-2.7-1.5-3.7-2.6a8.3 8.3 0 0 1-2-3.6h.8V177h-3.8Zm12.8-14.1c1.8 0 3.3-.4 4.7-1.3a9 9 0 0 0 3.2-3.5 11 11 0 0 0 1.2-5.2c0-1.9-.4-3.6-1.2-5.1a9.3 9.3 0 0 0-3.2-3.6c-1.4-.8-3-1.3-4.7-1.3a8.8 8.8 0 0 0-8 4.8c-.8 1.6-1.2 3.3-1.2 5.2 0 2 .4 3.7 1.2 5.2a8.8 8.8 0 0 0 8 4.8Zm18.4 3.1v-26.1h3.7l.1 7-.4-1a9.7 9.7 0 0 1 4.7-5.7 7.9 7.9 0 0 1 5.4-.7l1.2.3-1 4.2-1.4-.4-1.3-.2c-1 0-2.1.3-3 .7-.9.3-1.7 1-2.3 1.7-.6.6-1.1 1.5-1.4 2.4-.4 1-.5 2-.5 3V166h-3.9Zm29 .5c-2.6 0-4.9-.6-7-1.8a12 12 0 0 1-4.7-4.8c-1.1-2-1.7-4.4-1.7-7a12.9 12.9 0 0 1 13.4-13.5 12.7 12.7 0 0 1 11.6 6.5c1.2 2 1.8 4.3 1.8 7a13.5 13.5 0 0 1-6.5 11.8c-2 1.2-4.3 1.8-6.9 1.8Zm0-3.6c1.9 0 3.5-.4 5-1.3a9.4 9.4 0 0 0 3.3-3.5 11 11 0 0 0 1.2-5.3c0-1.9-.4-3.6-1.2-5.1a9.3 9.3 0 0 0-8.3-4.8c-1.8 0-3.5.4-5 1.3a9 9 0 0 0-3.3 3.6 10 10 0 0 0-1.2 5c0 2 .4 3.7 1.2 5.3.8 1.5 2 2.7 3.4 3.6a10 10 0 0 0 5 1.3Zm15.2 12.9-1.5-3c1.4 0 2.5-.2 3.3-.7.9-.4 1.5-1.1 1.8-2 .5-1 .6-2 .6-3.4v-26.8h3.9v27.9c0 1.6-.4 3-1 4.2a7 7 0 0 1-2.9 2.8 8 8 0 0 1-4.2 1Zm6.2-41.6a3 3 0 0 1-2.1-.6c-.5-.5-.8-1.2-.8-2 0-.9.3-1.5.8-2s1.2-.8 2.1-.8c.9 0 1.6.3 2.1.8.5.4.8 1 .8 2 0 .8-.3 1.4-.8 1.9s-1.2.8-2.1.8Zm20.8 32.3c-2.6 0-5-.6-7-1.7s-3.5-2.7-4.7-4.8a14 14 0 0 1-1.7-7c0-2 .3-3.8 1-5.4a12 12 0 0 1 6.8-7.2 12.8 12.8 0 0 1 10-.1 11 11 0 0 1 3.7 2.6c1 1.1 1.9 2.4 2.4 4 .5 1.5.8 3.2.7 5v1.8h-21.8l-.5-3.2h19.4l-.9.8v-1.2a7.8 7.8 0 0 0-3.7-6.2c-1.2-.7-2.5-1-4.1-1-1.9 0-3.5.4-4.9 1.2a7.3 7.3 0 0 0-3.1 3.3 12 12 0 0 0-1.1 5.4c0 2 .4 3.9 1.2 5.4a8.2 8.2 0 0 0 3.4 3.5 11 11 0 0 0 5.4 1.3 11.5 11.5 0 0 0 7.6-3.2l2 2.8c-.8.7-1.7 1.4-2.7 2a15.3 15.3 0 0 1-7.4 1.9Zm27.5 0a12.6 12.6 0 0 1-11.2-6.6c-1-2-1.6-4.4-1.6-7 0-2.6.5-5 1.6-7a12.7 12.7 0 0 1 11.3-6.6c2.2 0 4.3.5 6 1.4 2 .9 3.4 2 4.5 3.7l-2.2 2.7a9.8 9.8 0 0 0-5.1-3.7 8.7 8.7 0 0 0-7.8.8 9.6 9.6 0 0 0-4.6 8.7c0 2 .4 3.7 1.2 5.2.9 1.5 2 2.7 3.4 3.6 1.4.8 3 1.3 4.7 1.3a9.9 9.9 0 0 0 5.7-1.9c.9-.6 1.7-1.3 2.4-2.3l2.2 2.8a13.6 13.6 0 0 1-10.5 5Zm19-.5v-33h3.7v33h-3.7Zm-6-22.5v-3.6h16.3v3.6h-16.2Zm30.4 23a14 14 0 0 1-6-1.3c-1.7-.8-3.1-1.9-4.2-3.3l2.7-2.3a9.6 9.6 0 0 0 7.8 3.6c.9 0 1.6 0 2.3-.3.7-.2 1.2-.4 1.7-.8s1-.8 1.2-1.3a3.4 3.4 0 0 0-1-4.4l-2-.9-2.8-1c-1.9-.5-3.4-1-4.7-1.6a9.4 9.4 0 0 1-2.9-1.9 7 7 0 0 1-1.1-2 7.3 7.3 0 0 1 .3-5.2c.5-.9 1-1.7 1.9-2.4.8-.7 1.8-1.2 2.9-1.5 1.1-.4 2.3-.6 3.6-.6a13.6 13.6 0 0 1 7 2c1 .6 2 1.4 2.7 2.3l-2.3 2.5a9 9 0 0 0-2.1-1.8 8.5 8.5 0 0 0-5.1-1.7c-.8 0-1.5 0-2.2.3a5 5 0 0 0-1.8.8c-.4.3-.8.8-1 1.3-.3.4-.4 1-.4 1.6a3 3 0 0 0 1.1 2.4c.5.4 1.2.7 2 1l3.2 1c1.5.4 2.7.8 3.7 1.3a6 6 0 0 1 2.5 1.4c1 .7 1.6 1.4 2 2.3.3.9.5 1.8.5 3 0 1.4-.4 2.7-1.2 3.8-.8 1.2-2 2-3.4 2.8-1.4.6-3 .9-4.9.9Zm17.5 0c-1 0-1.6-.3-2.1-.8s-.7-1.3-.7-2.3c0-.9.2-1.6.7-2.2.5-.6 1.2-.9 2-.9 1 0 1.6.3 2.1.8.5.6.8 1.3.8 2.3 0 1-.3 1.7-.8 2.3-.5.5-1.2.8-2 .8Z"/><path fill="#414141" d="M229.5 109V73.3h-11.1v-8.1h31.2v8.1h-11.1V109h-9Zm26.4 0V65.2h9V76l-.3 6.3h2.7l-3 2.1c0-2.7 1-4.8 2.6-6.5a9 9 0 0 1 6.6-2.5c3.2 0 5.8 1.1 7.7 3.4 2 2.2 3 5.2 3 8.9V109h-9V88.6c0-1.7-.5-3-1.4-4a5 5 0 0 0-3.8-1.4 5 5 0 0 0-3.7 1.4c-1 1-1.4 2.3-1.4 4V109h-9Zm50.1.6c-3 0-5.5-.5-7.7-1.6a12.5 12.5 0 0 1-5-4.6c-1.2-2-1.7-4.4-1.7-7v-7.8a12 12 0 0 1 6.8-11.5c2.1-1.1 4.7-1.7 7.6-1.7 3 0 5.5.6 7.6 1.7 2.1 1 3.8 2.6 5 4.6a13 13 0 0 1 1.8 6.9v6.1H300v1.7c0 2 .5 3.6 1.5 4.6 1 1 2.5 1.4 4.4 1.4a9 9 0 0 0 3.4-.6c1-.4 1.5-1 1.7-1.8h8.8c-.7 2.9-2.2 5.2-4.8 7a15.5 15.5 0 0 1-9 2.6Zm5.8-19.6v-1.5a7 7 0 0 0-1.5-4.8c-.9-1-2.3-1.6-4.3-1.6s-3.4.5-4.4 1.7a7.3 7.3 0 0 0-1.5 4.8v.8l12.3-.1-.6.7Zm52 19V65.2H378c2.9 0 5.4.5 7.6 1.4 2.2 1 3.9 2.3 5 4a9.7 9.7 0 0 1 2 5.9 10 10 0 0 1-1 4.4 8.1 8.1 0 0 1-6.4 4.7v.2a9.3 9.3 0 0 1 7.3 5.5c.7 1.5 1 3.2 1 5a11.7 11.7 0 0 1-7.1 11.1c-2.3 1-4.9 1.6-7.9 1.6H364Zm8.8-7.3h5.6c2 0 3.5-.5 4.6-1.5 1.1-1 1.7-2.5 1.7-4.3 0-1.9-.6-3.3-1.7-4.4a6.4 6.4 0 0 0-4.6-1.6h-5.6v11.8Zm0-18.9h5.2c1.8 0 3.2-.4 4.2-1.3a5 5 0 0 0 1.5-3.9c0-1.6-.5-2.9-1.5-3.8-1-.9-2.4-1.3-4.2-1.3h-5.2v10.3ZM401 109V76h8.7v6.9h2.7l-3 2.1c0-3 .9-5.3 2.6-7 1.7-1.7 4-2.6 7-2.6 3.3 0 5.9 1.1 7.8 3.4a14 14 0 0 1 2.8 9.2v3.3h-9v-2.7c0-1.7-.5-3-1.4-4-.9-1-2.2-1.4-3.9-1.4-1.7 0-3 .5-3.9 1.6-.9 1-1.4 2.6-1.4 4.5V109h-9Zm49 .6c-3 0-5.6-.5-7.8-1.6a12.5 12.5 0 0 1-5-4.6c-1.2-2-1.7-4.4-1.7-7v-7.8a12 12 0 0 1 6.8-11.5c2.1-1.1 4.7-1.7 7.6-1.7 3 0 5.5.6 7.6 1.7 2.1 1 3.8 2.6 5 4.6a13 13 0 0 1 1.8 6.9v6.1H444v1.7c0 2 .5 3.6 1.5 4.6 1 1 2.5 1.4 4.4 1.4a9 9 0 0 0 3.4-.6c1-.4 1.5-1 1.7-1.8h8.8c-.7 2.9-2.2 5.2-4.8 7a15.5 15.5 0 0 1-9 2.6Zm5.7-19.6v-1.5a7 7 0 0 0-1.5-4.8c-.9-1-2.3-1.6-4.3-1.6s-3.4.5-4.4 1.7a7.3 7.3 0 0 0-1.5 4.8v.8l12.3-.1-.6.7Zm25.9 19.6a11 11 0 0 1-7.8-2.8 10 10 0 0 1-2.9-7.5 9.3 9.3 0 0 1 6.2-9.4c2-1 4.5-1.4 7.3-1.4h6.5v-2c0-1.3-.5-2.3-1.3-3-.9-.7-2.1-1-3.7-1a7 7 0 0 0-3.7.9c-.8.6-1.3 1.5-1.4 2.6h-8.5a9.8 9.8 0 0 1 3.8-7.7c2.5-2 5.8-2.9 10-2.9 4.3 0 7.7 1 10.1 3 2.5 2 3.7 4.8 3.7 8.4V109h-8.7v-6.5h-1.5l1.7-1a8 8 0 0 1-1.2 4.3 8 8 0 0 1-3.5 2.8c-1.4.7-3.1 1-5.1 1Zm3.2-7.2c1.8 0 3.3-.5 4.4-1.4 1.1-1 1.7-2.2 1.7-3.7v-3.4h-6.3c-1.6 0-2.9.4-3.7 1.2-.9.8-1.3 1.8-1.3 3a4 4 0 0 0 1.3 3.1c1 .8 2.2 1.2 3.9 1.2ZM508 109V65.2h9v23.3h4.5l7-12.5h9.8l-9.1 16.1 9.3 16.9h-10l-7-13H517v13h-9Zm35.6 10.8V76h8.7v6.9h2.1l-2.9 4.5c0-3.7.9-6.6 2.6-8.8a9 9 0 0 1 7.3-3.2c2.1 0 4 .6 5.6 1.7 1.6 1 2.8 2.6 3.7 4.5a14 14 0 0 1 1.4 6.7v8.4c0 2.5-.5 4.8-1.4 6.7a9.7 9.7 0 0 1-9.3 6.2 9 9 0 0 1-7.3-3.2 14 14 0 0 1-2.6-8.8l3 4.6h-2.2l.3 8.6v9h-9Zm14.3-18c1.7 0 3-.5 3.8-1.4 1-1 1.4-2.3 1.4-4v-7.8c0-1.8-.5-3.1-1.4-4-.9-1-2.1-1.4-3.8-1.4-1.7 0-3 .5-4 1.5-.8 1-1.3 2.4-1.3 4.2v7.2c0 1.8.5 3.3 1.4 4.3.9 1 2.2 1.4 4 1.4Zm23 7.2V76h8.6v6.9h2.7l-3 2.1c0-3 .9-5.3 2.6-7 1.7-1.7 4-2.6 7-2.6 3.3 0 5.9 1.1 7.8 3.4a14 14 0 0 1 2.8 9.2v3.3h-9v-2.7c0-1.7-.5-3-1.4-4-1-1-2.2-1.4-3.9-1.4-1.7 0-3 .5-3.9 1.6-1 1-1.4 2.6-1.4 4.5V109h-9Zm48.7.6c-2.9 0-5.4-.5-7.6-1.6a12.5 12.5 0 0 1-5-4.6c-1.2-2-1.8-4.4-1.8-7v-7.8c0-2.6.6-5 1.8-6.9a12 12 0 0 1 5-4.6c2.2-1.1 4.7-1.7 7.6-1.7 3 0 5.5.6 7.7 1.7 2.1 1 3.8 2.6 5 4.6a13 13 0 0 1 1.7 6.9v7.8c0 2.6-.6 5-1.8 7-1.1 2-2.8 3.5-5 4.6-2 1-4.6 1.6-7.6 1.6Zm0-7.8c1.8 0 3.1-.5 4-1.4 1-1 1.4-2.3 1.4-4v-7.8c0-1.8-.4-3.1-1.3-4-1-1-2.3-1.4-4-1.4-1.8 0-3.1.5-4 1.4-1 .9-1.5 2.2-1.5 4v7.8c0 1.7.5 3 1.4 4 1 1 2.3 1.4 4 1.4Zm36 7.8c-2.9 0-5.4-.5-7.6-1.6a12.5 12.5 0 0 1-5-4.6c-1.2-2-1.8-4.4-1.8-7v-7.8c0-2.6.6-5 1.8-6.9a12 12 0 0 1 5-4.6c2.2-1.1 4.7-1.7 7.6-1.7 3 0 5.5.6 7.6 1.7 2.2 1 3.9 2.6 5 4.6a13 13 0 0 1 1.8 6.9v7.8c0 2.6-.6 5-1.8 7-1.1 2-2.8 3.5-5 4.6-2 1-4.6 1.6-7.6 1.6Zm0-7.8c1.8 0 3.1-.5 4-1.4 1-1 1.4-2.3 1.4-4v-7.8c0-1.8-.4-3.1-1.4-4-.9-1-2.2-1.4-4-1.4-1.7 0-3 .5-4 1.4-1 .9-1.4 2.2-1.4 4v7.8c0 1.7.5 3 1.4 4 1 1 2.3 1.4 4 1.4ZM695 109V88.6h-8.8v-8.1h8.8v-5.1c0-3 1-5.5 3.1-7.4a12 12 0 0 1 8.3-2.8h9.7V73h-9.4c-.8 0-1.5.3-2 .8s-.7 1.1-.7 1.9v4.8h12v8.1h-12V109h-9Zm64.5 0V65.2h14.1c3 0 5.5.5 7.6 1.4 2.2 1 4 2.3 5.1 4a9.7 9.7 0 0 1 1.9 5.9 10 10 0 0 1-1 4.4 8.1 8.1 0 0 1-6.4 4.7v.2a9.3 9.3 0 0 1 7.3 5.5c.7 1.5 1.1 3.2 1.1 5a11.7 11.7 0 0 1-7.2 11.1c-2.2 1-4.9 1.6-7.9 1.6h-14.6Zm8.7-7.3h5.6a7 7 0 0 0 4.7-1.5 6 6 0 0 0 1.6-4.3c0-1.9-.5-3.3-1.6-4.4a6.4 6.4 0 0 0-4.7-1.6h-5.6v11.8Zm0-18.9h5.3a6 6 0 0 0 4.1-1.3 5 5 0 0 0 1.5-3.9c0-1.6-.5-2.9-1.5-3.8a6 6 0 0 0-4.1-1.3h-5.3v10.3Zm37 26.8c-3.2 0-5.8-1-7.7-2.8-2-2-3-4.4-3-7.5 0-2.3.6-4.2 1.6-5.8 1.1-1.6 2.7-2.8 4.7-3.6 2-1 4.4-1.4 7.3-1.4h6.5v-2c0-1.3-.5-2.3-1.4-3-.8-.7-2-1-3.6-1-1.5 0-2.8.3-3.7.9-.9.6-1.3 1.5-1.4 2.6H796a9.8 9.8 0 0 1 3.8-7.7 15 15 0 0 1 9.9-2.9c4.4 0 7.8 1 10.2 3 2.4 2 3.7 4.8 3.7 8.4V109H815v-6.5h-1.5l1.6-1a8 8 0 0 1-1.2 4.3 8 8 0 0 1-3.4 2.8c-1.4.7-3.1 1-5.1 1Zm3.2-7.2c2 0 3.4-.5 4.5-1.4 1.1-1 1.7-2.2 1.7-3.7v-3.4h-6.3c-1.6 0-2.9.4-3.8 1.2a4 4 0 0 0-1.2 3 4 4 0 0 0 1.3 3.1c1 .8 2.2 1.2 3.8 1.2Zm35.7 7.2c-2.7 0-5-.4-7.1-1.3-2-.8-3.7-2-4.8-3.6a8.8 8.8 0 0 1-1.7-5.3h8.8c0 1.1.4 2 1.3 2.5.8.6 2 .9 3.5.9h2.7a7 7 0 0 0 3.7-.9c1-.5 1.4-1.3 1.4-2.4 0-1-.3-1.7-1-2.1-.8-.5-1.9-.8-3.4-1l-7.5-.9c-3-.4-5.2-1.4-6.7-3.2a10.2 10.2 0 0 1-2.4-6.9c0-3.3 1.1-5.8 3.3-7.5 2.1-1.7 5.3-2.5 9.6-2.5h2.8c4 0 7.2.9 9.6 2.6a8.3 8.3 0 0 1 3.6 7.1H851c0-1-.4-1.7-1.2-2.2-.7-.5-1.8-.8-3.2-.8h-2.8c-1.4 0-2.5.3-3.2.8-.7.5-1.1 1.2-1.1 2.2 0 .9.3 1.5 1 1.8.7.3 1.7.6 3 .7l7.2 1c3.3.3 5.7 1.5 7.3 3.4a11 11 0 0 1 2.5 7.4 9 9 0 0 1-3.5 7.6 16.8 16.8 0 0 1-10.2 2.6h-2.7Zm37.4 0c-2.9 0-5.4-.5-7.6-1.6a12.5 12.5 0 0 1-5-4.6c-1.2-2-1.8-4.4-1.8-7v-7.8c0-2.6.6-5 1.7-6.9a12 12 0 0 1 5-4.6c2.3-1.1 4.8-1.7 7.7-1.7 3 0 5.5.6 7.6 1.7 2.2 1 3.8 2.6 5 4.6a13 13 0 0 1 1.8 6.9v6.1h-20.2v1.7c0 2 .4 3.6 1.4 4.6 1 1 2.5 1.4 4.4 1.4a9 9 0 0 0 3.4-.6c1-.4 1.5-1 1.7-1.8h8.8c-.6 2.9-2.2 5.2-4.7 7a15.5 15.5 0 0 1-9.2 2.6Zm5.8-19.6v-1.5a7 7 0 0 0-1.4-4.8c-1-1-2.4-1.6-4.4-1.6-2 0-3.4.5-4.4 1.7a7.3 7.3 0 0 0-1.4 4.8v.8l12.2-.1-.6.7Zm52 19V65.2h14.1c3.2 0 5.9.5 8.1 1.6a12.5 12.5 0 0 1 7.3 11.7 14 14 0 0 1-2.2 7.6 11.8 11.8 0 0 1-5.5 4.9l8.2 18h-9.7l-7.1-16.6h-4.2V109h-9Zm9-24.4h5.1c2 0 3.6-.5 4.7-1.5 1-1 1.6-2.4 1.6-4.2 0-1.8-.5-3.3-1.6-4.3s-2.7-1.6-4.7-1.6h-5.1v11.6Zm41.2 25c-3 0-5.5-.5-7.7-1.6a12.5 12.5 0 0 1-5-4.6c-1.2-2-1.8-4.4-1.8-7v-7.8c0-2.6.6-5 1.7-6.9a12 12 0 0 1 5-4.6c2.3-1.1 4.8-1.7 7.8-1.7 2.9 0 5.4.6 7.5 1.7 2.2 1 3.9 2.6 5 4.6a13 13 0 0 1 1.8 6.9v6.1h-20.2v1.7c0 2 .5 3.6 1.4 4.6 1 1 2.5 1.4 4.5 1.4 1.2 0 2.4-.2 3.3-.6 1-.4 1.5-1 1.7-1.8h8.8c-.6 2.9-2.2 5.2-4.7 7a15.5 15.5 0 0 1-9.1 2.6Zm5.7-19.6v-1.5a7 7 0 0 0-1.4-4.8c-1-1-2.4-1.6-4.3-1.6-2 0-3.5.5-4.5 1.7a7.3 7.3 0 0 0-1.4 4.8v.8l12.2-.1-.6.7Zm16.1 29.8V76h8.7v6.9h2.1l-2.9 4.5c0-3.7.9-6.6 2.6-8.8a9 9 0 0 1 7.3-3.2c2.1 0 4 .6 5.6 1.7 1.6 1 2.8 2.6 3.7 4.5a14 14 0 0 1 1.4 6.7v8.4c0 2.5-.5 4.8-1.4 6.7a9.7 9.7 0 0 1-9.3 6.2 9 9 0 0 1-7.3-3.2 14 14 0 0 1-2.6-8.8l3 4.6h-2.2l.3 8.6v9h-9Zm14.3-18c1.7 0 3-.5 3.8-1.4 1-1 1.4-2.3 1.4-4v-7.8c0-1.8-.5-3.1-1.4-4-.9-1-2.1-1.4-3.8-1.4-1.7 0-3 .5-4 1.5-.8 1-1.3 2.4-1.3 4.2v7.2c0 1.8.5 3.3 1.4 4.3.9 1 2.2 1.4 4 1.4Zm35.8 7.8c-3 0-5.5-.5-7.7-1.6a12.5 12.5 0 0 1-5-4.6c-1.2-2-1.7-4.4-1.7-7v-7.8a12 12 0 0 1 6.8-11.5c2.1-1.1 4.6-1.7 7.6-1.7s5.5.6 7.6 1.7c2.1 1 3.8 2.6 5 4.6a13 13 0 0 1 1.8 6.9v7.8a12.3 12.3 0 0 1-6.8 11.6c-2.1 1-4.7 1.6-7.6 1.6Zm0-7.8c1.7 0 3-.5 4-1.4.9-1 1.4-2.3 1.4-4v-7.8c0-1.8-.5-3.1-1.4-4-1-1-2.3-1.4-4-1.4-1.8 0-3.1.5-4 1.4-1 .9-1.4 2.2-1.4 4v7.8c0 1.7.4 3 1.3 4 1 1 2.3 1.4 4 1.4Z"/><path fill="#332F28" d="M176.4 55.6H60.6v115.8h115.8V55.6Z"/><path fill="#fff" d="M74.5 81.3 89 68.4Z"/><path fill="#808C7E" fill-rule="evenodd" d="M89.8 69.3 75.3 82.2l-1.6-1.7 14.5-13 1.6 1.8Zm-11-3.3-6.3-6.2 1.6-1.6 6.3 6.2-1.6 1.7Zm-9 9.3L63.5 69l1.6-1.6 6.3 6.3-1.6 1.6Zm55.9-1.1 8.8-8.3 1.6 1.7-8.8 8.2-1.6-1.6Zm-46.2 83.1-7.7-8.2 1.7-1.6 7.7 8.2-1.7 1.6Zm76.6-9.3 9.6-9.2 1.6 1.6-9.6 9.2-1.6-1.7Zm-2.9-91.8-7.6 6.6-1.5-1.7 7.6-6.6 1.5 1.7Zm-74.7 57L67.8 102l1.7-1.6 10.7 11-1.7 1.7Zm9.1 15.3-13.2 12.3-1.6-1.7L86 126.8l1.6 1.7ZM141 93l-9.7-10.5L133 81l9.7 10.5-1.6 1.6Zm5.4 50-11.8-12.8 1.6-1.6 11.9 12.8-1.7 1.6Zm-22.1-22.8-10.6 9.7-1.5-1.7 10.5-9.7 1.6 1.7Z" clip-rule="evenodd"/><path fill="#fff" d="m59.6 166.5 23.9-23.1-24-24.8v48Zm51.5 5.7-25-26-26.7 26h51.7ZM86.4 55.7 75.2 66.5l36.7 38L137 80.4l-23.8-24.7H86.4Zm90.5 55.8-22 21.2 22 22.8v-44Zm-56.3-55.6 20.3 21 13.2-12.7-8-8.3h-25.5Zm55 .1h-23.3l23.3 24V56Zm-115 56.7L88 86.2l-16.6-17-11 10.5v33Zm.6-39.8 18-17.3h-18v17.3Zm90.8 62.8-37 35.5h62v-9.8l-25-25.7Z"/><path fill="#332F28" fill-rule="evenodd" d="M59 54h119v119H59V54Zm3.3 3.2v112.5h112.4V57.4H62.4Z" clip-rule="evenodd"/><path fill="#29C82E" d="m115 117.8 18 18.7 42.2-40.6-18-18.7-42.1 40.6ZM90.4 98l-18 17.3 39.8 41.2 17.9-17.3L90.4 98Z"/><mask id="f" width="247.1" height="180.2" x="1112.7" y="10.4" fill="#000" maskUnits="userSpaceOnUse"><path fill="#fff" d="M1112.7 10.4h247.1v180.2h-247.1z"/><path d="m1154.8 183-26.4-62.3a21.6 21.6 0 0 1-1.8-10.9c.5-3.6 1.8-6.8 4-9.6s5.2-5 9-6.6a23 23 0 0 1 10.6-2.1 16.8 16.8 0 0 1 16 20.1c-.8 3.2-2.5 5.8-5.1 7.7l.1.3c2.8-.7 5.4-.6 8 .1a20.5 20.5 0 0 1 12.2 11.5c1.6 3.8 2.2 7.5 2 11.1a20 20 0 0 1-3.7 9.6c-2.1 2.8-5 5-8.8 6.6-4 1.7-7.7 2-11 .8a13 13 0 0 1-7.4-7.6l3.3 1.4-2.3 1 5 11 5.9 14-9.6 4Zm10.6-32.4a11 11 0 0 0 6.4-6.5c1-3 .9-6.3-.6-9.8a12.6 12.6 0 0 0-6.5-7c-2.9-1.4-6-1.3-9.3 0l-4.5 2-3.1-7.5 3.2-1.3a9.7 9.7 0 0 0 5.5-13.3 9.8 9.8 0 0 0-5.5-5.7c-2.5-1-5.1-.9-8 .3a9.6 9.6 0 0 0-5.7 6 12 12 0 0 0 .7 8.9l11.4 26.9a13 13 0 0 0 6.7 7.1c3 1.3 6 1.2 9.3-.1Zm55.3-13.2a22.3 22.3 0 0 1-11.4 2c-3.6-.3-6.9-1.6-9.7-3.7a23.3 23.3 0 0 1-6.8-9.4l-4.9-11.5c-1.7-4-2.3-7.8-2-11.3.5-3.6 1.8-6.8 4-9.7a24 24 0 0 1 9.5-6.8c4-1.7 7.8-2.3 11.4-2 3.6.3 6.8 1.5 9.6 3.7 2.8 2 5 5 6.7 8.8l3.7 8.8-30.2 12.8 1.7 4c1.4 3.4 3.5 5.6 6.2 6.7 2.6 1 5.6 1 8.8-.4a15 15 0 0 0 6-4.3 6.5 6.5 0 0 0 1.5-5.4l9.5-4c1 4.4.4 8.6-2 12.6-2.5 3.9-6.4 7-11.5 9.1Zm-1.6-33-1.2-3a12.5 12.5 0 0 0-6.3-7.1c-2.6-1.3-5.6-1.2-9 .2a10.9 10.9 0 0 0-6.5 6.3c-1 2.8-.8 6 .8 9.5l.9 2.1 21.7-9.3-.4 1.2Zm59.1 7.6c-4.3 1.8-8.2 2-11.8.6a14.5 14.5 0 0 1-8-8.3L1247.3 78l-13.7 5.8-3.7-8.6 13.7-5.8-5.8-13.7 9.5-4 5.8 13.6 19.7-8.3 3.6 8.7-19.6 8.3 11 26a6 6 0 0 0 3 3.3 5 5 0 0 0 4.1-.1l14.3-6 3.7 8.6-14.7 6.2Zm43.7-17.4a18 18 0 0 1-13.6.8 16 16 0 0 1-9-9.2c-1.3-3-1.8-6-1.3-9a15 15 0 0 1 3.8-7.8c2-2.4 4.7-4.3 8.1-5.7l13.5-5.7-1.5-3.6c-1.2-2.7-2.9-4.5-5-5.2-2.3-.8-5-.5-8 .8a14 14 0 0 0-6.2 4.5 5.8 5.8 0 0 0-.8 5.6l-9.4 4c-1.5-4.3-1-8.4 1.2-12.4 2.3-4 6.2-7.3 11.9-9.7 6-2.5 11.3-3 15.8-1.5 4.5 1.4 7.8 4.7 10 9.8l14 33.2-9.3 4-3.9-9.1-1.5.7.9-2.3a11.5 11.5 0 0 1-2.5 13 20.7 20.7 0 0 1-7.2 4.8Zm-.6-9a14 14 0 0 0 7.4-6.2 9.5 9.5 0 0 0 .2-8.4l-2.7-6.3-12.7 5.4a9.2 9.2 0 0 0-5.2 4.8c-.8 2-.8 4.2.2 6.6 1 2.4 2.7 4 5 4.8 2.3.7 4.8.5 7.8-.8Z"/></mask><path fill="red" fill-opacity=".3" d="m1154.8 183-26.4-62.3a21.6 21.6 0 0 1-1.8-10.9c.5-3.6 1.8-6.8 4-9.6s5.2-5 9-6.6a23 23 0 0 1 10.6-2.1 16.8 16.8 0 0 1 16 20.1c-.8 3.2-2.5 5.8-5.1 7.7l.1.3c2.8-.7 5.4-.6 8 .1a20.5 20.5 0 0 1 12.2 11.5c1.6 3.8 2.2 7.5 2 11.1a20 20 0 0 1-3.7 9.6c-2.1 2.8-5 5-8.8 6.6-4 1.7-7.7 2-11 .8a13 13 0 0 1-7.4-7.6l3.3 1.4-2.3 1 5 11 5.9 14-9.6 4Zm10.6-32.4a11 11 0 0 0 6.4-6.5c1-3 .9-6.3-.6-9.8a12.6 12.6 0 0 0-6.5-7c-2.9-1.4-6-1.3-9.3 0l-4.5 2-3.1-7.5 3.2-1.3a9.7 9.7 0 0 0 5.5-13.3 9.8 9.8 0 0 0-5.5-5.7c-2.5-1-5.1-.9-8 .3a9.6 9.6 0 0 0-5.7 6 12 12 0 0 0 .7 8.9l11.4 26.9a13 13 0 0 0 6.7 7.1c3 1.3 6 1.2 9.3-.1Zm55.3-13.2a22.3 22.3 0 0 1-11.4 2c-3.6-.3-6.9-1.6-9.7-3.7a23.3 23.3 0 0 1-6.8-9.4l-4.9-11.5c-1.7-4-2.3-7.8-2-11.3.5-3.6 1.8-6.8 4-9.7a24 24 0 0 1 9.5-6.8c4-1.7 7.8-2.3 11.4-2 3.6.3 6.8 1.5 9.6 3.7 2.8 2 5 5 6.7 8.8l3.7 8.8-30.2 12.8 1.7 4c1.4 3.4 3.5 5.6 6.2 6.7 2.6 1 5.6 1 8.8-.4a15 15 0 0 0 6-4.3 6.5 6.5 0 0 0 1.5-5.4l9.5-4c1 4.4.4 8.6-2 12.6-2.5 3.9-6.4 7-11.5 9.1Zm-1.6-33-1.2-3a12.5 12.5 0 0 0-6.3-7.1c-2.6-1.3-5.6-1.2-9 .2a10.9 10.9 0 0 0-6.5 6.3c-1 2.8-.8 6 .8 9.5l.9 2.1 21.7-9.3-.4 1.2Zm59.1 7.6c-4.3 1.8-8.2 2-11.8.6a14.5 14.5 0 0 1-8-8.3L1247.3 78l-13.7 5.8-3.7-8.6 13.7-5.8-5.8-13.7 9.5-4 5.8 13.6 19.7-8.3 3.6 8.7-19.6 8.3 11 26a6 6 0 0 0 3 3.3 5 5 0 0 0 4.1-.1l14.3-6 3.7 8.6-14.7 6.2Zm43.7-17.4a18 18 0 0 1-13.6.8 16 16 0 0 1-9-9.2c-1.3-3-1.8-6-1.3-9a15 15 0 0 1 3.8-7.8c2-2.4 4.7-4.3 8.1-5.7l13.5-5.7-1.5-3.6c-1.2-2.7-2.9-4.5-5-5.2-2.3-.8-5-.5-8 .8a14 14 0 0 0-6.2 4.5 5.8 5.8 0 0 0-.8 5.6l-9.4 4c-1.5-4.3-1-8.4 1.2-12.4 2.3-4 6.2-7.3 11.9-9.7 6-2.5 11.3-3 15.8-1.5 4.5 1.4 7.8 4.7 10 9.8l14 33.2-9.3 4-3.9-9.1-1.5.7.9-2.3a11.5 11.5 0 0 1-2.5 13 20.7 20.7 0 0 1-7.2 4.8Zm-.6-9a14 14 0 0 0 7.4-6.2 9.5 9.5 0 0 0 .2-8.4l-2.7-6.3-12.7 5.4a9.2 9.2 0 0 0-5.2 4.8c-.8 2-.8 4.2.2 6.6 1 2.4 2.7 4 5 4.8 2.3.7 4.8.5 7.8-.8Z"/><path fill="red" d="m1154.8 183-4.6 2 2 4.6 4.6-2-2-4.5Zm-28.2-73.2-5-.6 5 .6Zm4-9.6-4-3 4 3Zm28.7-5.8-2.8 4.2 2.8-4.2Zm6.9 17.2 4.8 1.3v-.1l-4.8-1.2Zm-5.1 7.7-3-4-3.1 2.4 1.5 3.6 4.6-2Zm.1.3-4.6 2 1.7 3.9 4.1-1-1.2-5Zm8 .1-1.5 4.8h.1l1.4-4.8Zm7 4.2-3.4 3.6.1.1 3.4-3.7Zm7.1 18.4 5 .4-5-.4Zm-3.6 9.6 4 3-4-3Zm-19.8 7.4-1.8 4.7h.1l1.7-4.7Zm-7.4-7.6 2-4.6-11.4-4.8 4.8 11.4 4.6-2Zm3.3 1.4 2 4.6 10.8-4.5-10.8-4.7-2 4.6Zm-2.3 1-2-4.6-4.6 2 2 4.7 4.6-2Zm5 11 4.6-2-4.6 2Zm5.9 14 2 4.5 4.5-2-1.9-4.5-4.6 2Zm7.4-35-4.7-1.7 4.7 1.7Zm-7.1-16.8-2.2 4.5h.1l2-4.5Zm-13.8 2-4.6 2 2 4.5 4.6-2-2-4.5Zm-3.1-7.5-2-4.6-4.6 2 2 4.6 4.6-2Zm8.9-6.8-4.6-2v.1l4.6 2Zm-5.8-13.5-1.8 4.6 1.9-4.6Zm-13.6 6.3 4.8 1.7v-.1l-4.8-1.6Zm18.8 43-2 4.5 2-4.6Zm3.4 30.3-26.5-62.3-9.2 3.9 26.4 62.3 9.3-3.9Zm-26.5-62.3a16.6 16.6 0 0 1-1.4-8.4l-10-1.1c-.4 4.5.4 9 2.2 13.4l9.3-3.9Zm-1.4-8.4a14 14 0 0 1 3-7l-8-6.3a23.9 23.9 0 0 0-5 12.1l10 1.2Zm3-7c1.6-2.1 3.8-3.9 7-5.2l-4-9.2a27.2 27.2 0 0 0-11 8.1l8 6.2Zm7-5.2c3-1.3 5.9-1.8 8.4-1.7l.5-10c-4.3-.2-8.6.7-12.9 2.5l4 9.2Zm8.4-1.7c2.6.1 4.7.8 6.5 2l5.6-8.2a22.2 22.2 0 0 0-11.6-3.8l-.5 10Zm6.5 2c1.8 1.3 3.2 3 4.2 5.4l9.2-3.9a22 22 0 0 0-7.8-9.7l-5.6 8.3Zm4.2 5.4c1 2.3 1.1 4.4.6 6.6l9.8 2.3c1-4.3.6-8.6-1.2-12.8l-9.2 4Zm.6 6.5a8.4 8.4 0 0 1-3.2 5l6 8c3.5-2.7 5.9-6.3 7-10.5l-9.8-2.5Zm-4.8 10.9.1.2 9.2-3.9-.1-.2-9.2 3.9Zm6 3.1c1.9-.4 3.6-.4 5.2.1l3-9.5a19.5 19.5 0 0 0-10.7-.3l2.4 9.7Zm5.3.1a12 12 0 0 1 5 3l7-7.2a22.1 22.1 0 0 0-9.2-5.4l-2.8 9.6Zm5.1 3.1c1.6 1.4 2.9 3.3 3.9 5.6l9.2-3.9a25.4 25.4 0 0 0-6.3-9l-6.8 7.3Zm3.9 5.6c1.3 3.1 1.8 6 1.6 8.7l10 .8c.3-4.5-.6-9-2.4-13.4l-9.2 4Zm1.6 8.7c-.3 2.6-1.1 4.9-2.7 7l8 6c2.7-3.6 4.2-7.7 4.6-12.2l-10-.8Zm-2.7 7c-1.5 2-3.7 3.7-6.7 5l3.9 9.2a26 26 0 0 0 10.8-8.2l-8-6Zm-6.7 5c-3.3 1.4-5.6 1.4-7.4.7l-3.4 9.4c4.8 1.8 9.8 1.2 14.7-.9l-4-9.2Zm-7.3.8c-1.8-.7-3.4-2.1-4.6-5l-9.2 4a18 18 0 0 0 10.3 10.3l3.5-9.3Zm-11.2 1.6 3.4 1.4 3.9-9.2-3.3-1.4-4 9.2Zm3.4-7.8-2.3 1 3.9 9.2 2.3-1-4-9.2Zm-5 7.7 5 11 9.2-4.1-5-11-9.1 4Zm5 10.9 5.9 13.9 9.2-4-5.9-13.8-9.2 3.9Zm8.5 7.3-9.5 4 3.9 9.3 9.5-4-3.9-9.3Zm5-19.2c4.3-1.9 7.5-5 9.1-9.4l-9.4-3.4c-.5 1.5-1.5 2.7-3.7 3.6l4 9.2Zm9.1-9.4a18 18 0 0 0-.7-13.4l-9.2 3.9a9 9 0 0 1 .5 6.1l9.4 3.4Zm-.7-13.4a17.6 17.6 0 0 0-9.1-9.7l-4 9.2c1.5.6 2.9 2 3.9 4.4l9.2-4Zm-9-9.6c-4.3-2-8.9-2-13.3 0l3.9 9.2c2.2-1 3.7-.9 5.1-.2l4.3-9Zm-13.3 0-4.5 1.9 3.9 9.2 4.5-2-4-9.2Zm2 4.5-3.1-7.4-9.2 3.9 3.1 7.4 9.2-3.9Zm-5.8-.9 3.2-1.3-3.9-9.2-3.2 1.3 4 9.2Zm3.2-1.3a15 15 0 0 0 8.4-8.2l-9.3-3.7c-.4 1-1.2 2-3 2.7l4 9.2Zm8.4-8.1c1.6-3.9 1.4-8-.2-11.8l-9.2 4c.7 1.6.6 2.8.2 3.9l9.2 3.9Zm-.2-11.8a14.8 14.8 0 0 0-8.4-8.4l-3.5 9.4c1 .4 2 1.2 2.7 3l9.2-4Zm-8.3-8.3a15 15 0 0 0-11.7.3l4 9.2c1.7-.7 3-.7 4-.3l3.7-9.2Zm-11.7.3c-4 1.8-7 4.8-8.5 9l9.5 3.2c.4-1.3 1.2-2.2 3-3l-4-9.2Zm-8.5 9a17 17 0 0 0 .8 12.5l9.2-4c-1-2.3-1-4-.5-5.2l-9.5-3.4Zm.8 12.5 11.4 26.8 9.2-3.9-11.4-26.8-9.2 3.9Zm11.4 26.8c1.9 4.5 5 8 9.3 9.8l4-9.1c-1.7-.7-3-2-4.1-4.6l-9.2 4Zm9.3 9.9c4.4 1.8 8.9 1.6 13.2-.2l-3.9-9.2c-2.1.9-3.8.8-5.4.1l-3.9 9.3Zm55.2-16-.5 5 .5-5Zm-9.7-3.7-3.2 3.9h.1l3-4Zm-13.7-32.2-5-.6 5 .6Zm4-9.7-3.8-3.1 3.9 3.1Zm21-8.8-.5 5 .4-5Zm9.5 3.7-3 4 3-4Zm10.4 17.6 2 4.6 4.5-2-1.9-4.6-4.6 2Zm-30.2 12.8-2-4.6-4.6 2 2 4.5 4.6-2Zm7.9 10.7 1.8-4.6-1.8 4.6Zm14.9-4.7 3.9 3.2v-.1l-4-3Zm1.4-5.4-2-4.6-3.7 1.6.8 4 5-1Zm9.5-4 4.8-1.2-1.4-5.7-5.4 2.3 2 4.6Zm-2 12.6 4.1 2.7-4.2-2.7Zm-13.2-24-4.6 2 5.6 13 3.9-13.6-4.9-1.4Zm-7.5-10-2.1 4.5h.1l2-4.5Zm-15.5 6.5 4.7 1.8-4.7-1.8Zm1.7 11.6-4.6 2 2 4.6 4.5-2-2-4.6Zm21.7-9.3 4.8 1.4 2.8-10-9.6 4 2 4.6Zm-.7 29.7a18.9 18.9 0 0 1-9 1.7l-1 10c4.7.3 9.3-.5 13.9-2.5l-3.9-9.2Zm-9 1.7c-2.7-.3-5-1.2-7.2-2.8l-6 8c3.6 2.7 7.7 4.3 12.2 4.7l1-10Zm-7.1-2.8c-2-1.6-3.9-4-5.3-7.3l-9.2 3.9c2 4.5 4.6 8.4 8.2 11.3l6.3-7.9Zm-5.3-7.3-4.9-11.5-9.2 3.9 4.9 11.5 9.2-4Zm-4.9-11.5a18 18 0 0 1-1.6-9l-10-1c-.4 4.6.5 9.3 2.4 13.9l9.2-4Zm-1.6-8.8c.3-2.7 1.3-5 3-7.1l-7.8-6.3a23.7 23.7 0 0 0-5.1 12.2l9.9 1.2Zm3-7.1c1.7-2.1 4.1-4 7.4-5.4l-3.8-9.2c-4.6 2-8.5 4.7-11.4 8.3l7.8 6.3Zm7.4-5.4c3.5-1.4 6.4-1.9 9-1.6l1-10c-4.6-.4-9.2.5-13.8 2.4l3.8 9.2Zm9.2-1.6c2.6.2 4.9 1 6.9 2.6l6-7.9a22.6 22.6 0 0 0-12.2-4.7l-.8 10Zm7 2.7c2 1.4 3.7 3.6 5 6.8l9.2-4c-2-4.4-4.6-8.2-8.3-10.9l-6 8Zm5 6.8 3.7 8.7 9.2-3.9-3.7-8.7-9.2 3.9Zm6.3 2.2-30.2 12.8 4 9.2 30.2-12.8-4-9.2ZM1196 121l1.7 4 9.2-4-1.7-3.9-9.2 4Zm1.7 4c1.8 4.3 4.6 7.7 8.9 9.4l3.7-9.2c-1.1-.5-2.4-1.5-3.4-4.1l-9.3 3.9Zm8.9 9.4c4.2 1.7 8.5 1.3 12.7-.4l-4-9.2c-2.2 1-3.8.9-5 .4l-3.7 9.2Zm12.7-.4a20 20 0 0 0 8-5.7l-7.8-6.3c-.7.9-2 1.9-4.1 2.8l3.9 9.2Zm8-5.8c2.1-2.7 3.1-6 2.4-9.4l-9.8 2c0 .1.1.5-.5 1.3l8 6Zm-.5-3.9 9.4-4-3.9-9.2-9.4 4 3.9 9.2Zm2.6-7.4c.8 3 .4 5.9-1.4 8.7l8.5 5.3a21 21 0 0 0 2.6-16.4l-9.7 2.4Zm-1.4 8.7a19.2 19.2 0 0 1-9.2 7.2l3.9 9.2c6-2.5 10.6-6.1 13.7-11l-8.4-5.4Zm-4.3-23.2-1.2-3-9.2 3.9 1.2 3 9.2-4Zm-1.2-3a17.5 17.5 0 0 0-8.8-9.7l-4 9.1c1 .5 2.4 1.7 3.6 4.5l9.2-4Zm-8.7-9.7a16 16 0 0 0-13.2.2l4 9.2c2.4-1 3.9-.8 4.9-.3l4.3-9Zm-13.2.2a15.8 15.8 0 0 0-9.2 9.3l9.4 3.3c.4-1.1 1.3-2.3 3.7-3.4l-3.9-9.2Zm-9.2 9.2c-1.6 4.3-1 8.8.9 13.2l9.2-4c-1.2-2.8-1.2-4.6-.7-5.7l-9.4-3.5Zm.9 13.2.9 2 9.2-3.8-1-2.1-9.1 3.9Zm7.4 4.7 21.7-9.3-3.9-9.2-21.7 9.3 4 9.2Zm15-15.2-.4 1.2 9.7 2.7.3-1.2-9.6-2.7Zm32.6-23.8 4.6-2-2-4.5-4.6 2 2 4.5Zm-13.7 5.8-4.6 2 1.9 4.6 4.6-2-2-4.6Zm-3.7-8.6-2-4.6-4.6 2 2 4.5 4.6-2Zm13.7-5.8 2 4.6 4.5-2-2-4.6-4.5 2Zm-5.8-13.7-2-4.7-4.6 2 2 4.6 4.6-2Zm9.5-4 4.6-2-2-4.6-4.5 1.9 2 4.6Zm5.8 13.6-4.6 2 2 4.6 4.6-2-2-4.6Zm19.7-8.3 4.6-2-2-4.6-4.6 2 2 4.6Zm3.6 8.7 2 4.6 4.6-2-2-4.6-4.6 2Zm-19.6 8.3-2-4.6-4.5 2 1.9 4.5 4.6-2Zm14 29.3-2.2 4.5h.2l2-4.5Zm18.4-6.2 4.6-2-1.9-4.5-4.6 2 2 4.5Zm3.7 8.7 2 4.6 4.6-2-2-4.6-4.6 2Zm-16.6 1.6c-3.4 1.4-6 1.4-8 .6l-3.7 9.3c5 2 10.4 1.5 15.6-.7l-4-9.2Zm-8 .6c-2.2-.8-4-2.5-5.3-5.7l-9.2 4c2.2 5.1 5.7 9 10.8 11l3.6-9.3Zm-5.3-5.7-11.1-26.2-9.3 3.9 11.2 26.2 9.2-3.9Zm-17.7-28.9-13.7 5.8 4 9.2 13.6-5.8-3.9-9.2Zm-7.1 8.5-3.7-8.7-9.2 4 3.7 8.6 9.2-4Zm-6.4-2.1 13.7-5.8-3.9-9.3-13.7 5.9 4 9.2Zm16.4-12.4-5.8-13.7-9.2 3.9 5.8 13.7 9.2-3.9Zm-8.5-7.1 9.6-4-4-9.3-9.5 4 4 9.3Zm3-6.7 5.8 13.7 9.2-4-5.8-13.6-9.2 3.9Zm12.4 16.3 19.6-8.3-3.9-9.2-19.6 8.3 3.9 9.2Zm13-11 3.7 8.7 9.2-3.9-3.6-8.7-9.3 4Zm6.4 2.2-19.7 8.3 4 9.2 19.6-8.3-4-9.2Zm-22.3 14.8 11 26.1 9.3-3.9-11-26-9.3 3.8Zm11 26.1a11 11 0 0 0 5.4 5.8l4.4-9c-.1 0-.3-.1-.5-.7l-9.3 3.9Zm5.6 5.9a10 10 0 0 0 8 0l-3.8-9.3h-.3v.1h.1l-4 9.2Zm8 0 14.4-6.2-4-9.2-14.2 6.1 3.9 9.2Zm7.8-8.8 3.7 8.6 9.2-3.9-3.7-8.6-9.2 3.9Zm6.4 2-14.7 6.3 3.9 9.2 14.7-6.2-4-9.2Zm17.3-5.7-1.8 4.7 1.8-4.7ZM1298 77.3l-5-.8 5 .8Zm3.8-7.9 3.7 3.3-3.8-3.3Zm21.6-11.4 2 4.6 4.5-2-2-4.6-4.5 2Zm-6.6-8.8-1.6 4.7 1.6-4.7Zm-14 5.3-4.1-2.9 4 3Zm-1 5.6 2 4.6 4.3-1.8-1.5-4.5-4.7 1.7Zm-9.3 4-4.7 1.6 1.7 5 5-2-2-4.6Zm1.2-12.4-4.4-2.5 4.4 2.5Zm27.7-11.2-1.6 4.7 1.6-4.7Zm24 43 2 4.6 4.6-2-2-4.5-4.5 2Zm-9.3 4-4.6 2 2 4.6 4.5-2-1.9-4.6Zm-3.9-9.1 4.6-2-1.9-4.6-4.6 2 2 4.6Zm-1.5.7-4.7-2-4.5 11.3 11.1-4.7-2-4.6Zm.9-2.3 4.6-2-4.7-11-4.6 11.1 4.7 1.9Zm.8 7 5 1v-.1l-5-1Zm-3.3 6-3.6-3.4 3.6 3.5Zm-.4-10.4 4.4 2.3-4.4-2.3Zm-2.5-14.7 4.6-2-2-4.6-4.5 2 2 4.6Zm-17.9 10.2 4.6 2-4.6-2Zm5.2 11.4-1.6 4.8 1.6-4.8Zm6.4 3.7a13 13 0 0 1-9.9.7l-3.5 9.4a23 23 0 0 0 17.3-1L1320 90Zm-9.8.8a11 11 0 0 1-6.2-6.5l-9.2 3.9a21 21 0 0 0 11.8 11.9l3.6-9.3Zm-6.2-6.5c-1-2.4-1.3-4.4-1-6.3l-9.9-1.5c-.5 4 0 7.9 1.7 11.7l9.2-4Zm-1-6.3c.3-1.9 1.1-3.6 2.6-5.3l-7.5-6.6a20 20 0 0 0-5 10.4l10 1.5Zm2.6-5.3c1.5-1.7 3.6-3.2 6.4-4.4l-4-9.3a26 26 0 0 0-10 7.2l7.6 6.5Zm6.4-4.4 13.4-5.7-3.9-9.2L1308 59l3.9 9.3Zm16-12.3-1.4-3.5-9.2 3.9 1.5 3.5 9.2-3.9Zm-1.4-3.5a13.6 13.6 0 0 0-8-8l-3.3 9.4c.5.2 1.3.6 2 2.5l9.3-4Zm-8-8c-3.8-1.4-7.8-.7-11.6 1l4 9.1c2.4-1 3.7-.9 4.3-.7l3.2-9.5Zm-11.6 1a18.8 18.8 0 0 0-8.3 6.1l8.2 5.8a9 9 0 0 1 4-2.8l-3.9-9.2Zm-8.3 6.1c-2 3-2.7 6.6-1.4 10.2l9.4-3.4c-.1-.2-.1-.3 0-.4l.2-.6-8.1-5.8Zm1.3 3.9-9.4 4 4 9.2 9.3-4-3.9-9.2Zm-2.7 7c-1-3-.7-5.6.9-8.4l-8.8-4.9a19.5 19.5 0 0 0-1.5 16.5l9.4-3.3Zm.9-8.4c1.5-2.8 4.5-5.3 9.4-7.5l-3.9-9.2a28.3 28.3 0 0 0-14.3 11.8l8.8 5Zm9.4-7.5c5.3-2.2 9.3-2.4 12.3-1.4l3.2-9.5c-6-2-12.7-1.1-19.4 1.7l4 9.2Zm12.4-1.4c2.8 1 5.2 3 6.9 7l9.2-3.9a21 21 0 0 0-13.1-12.6l-3 9.5Zm6.9 7 14 33.3 9.3-4-14.1-33.2-9.2 4Zm16.7 26.7-9.3 4 3.8 9.2 9.4-4-3.9-9.2Zm-2.8 6.6-3.9-9-9.2 3.8 3.9 9.1 9.2-3.9Zm-10.4-11.7-1.6.7 3.9 9.2 1.6-.7-4-9.2Zm5 7.1 1-2.2-9.4-3.8-.9 2.3 9.3 3.7Zm-8.3-2.1c.6 1.5.7 2.8.5 4l9.8 1.9c.7-3.4.2-6.7-1.1-9.8l-9.2 3.9Zm.5 4a7.5 7.5 0 0 1-2 3.6l7.2 6.9c2.3-2.4 4-5.3 4.6-8.6l-9.8-2Zm-2 3.6a15.9 15.9 0 0 1-5.6 3.6l4 9.2a25 25 0 0 0 8.8-6l-7.3-6.8Zm-2.3 3.7a19 19 0 0 0 10-8.4l-9-4.6c-.6 1.2-2 2.6-4.9 3.8l4 9.2Zm10-8.4c2-4.1 2-8.5.3-12.7l-9.2 4c.7 1.6.6 2.8 0 4l8.8 4.7Zm.3-12.7-2.7-6.3-9.2 4 2.7 6.2 9.2-3.9Zm-9.2-9-12.8 5.5 4 9.2 12.7-5.4-4-9.2Zm-12.8 5.5a14.1 14.1 0 0 0-7.8 7.4l9.2 4c.3-.8 1-1.6 2.5-2.2l-3.9-9.2Zm-7.8 7.4a13 13 0 0 0 .2 10.5l9.2-3.9c-.5-1.3-.4-2-.2-2.7l-9.2-3.9Zm.2 10.5c1.5 3.6 4.2 6.4 8 7.7l3.2-9.5c-.7-.3-1.4-.8-2-2l-9.2 3.8Zm8 7.7a16 16 0 0 0 11.3-1l-3.9-9.2c-2.2 1-3.5 1-4.3.7l-3 9.5Z" mask="url(#f)"/><path fill="#C92323" d="m1226.2 188-15.3-17.5 3.2-1.2 10.4 12.1a42.1 42.1 0 0 1 2.8 3.6l-.3-2a89 89 0 0 1-.3-2.5l-1.2-16 3.1-1.2 1.5 23.1-3.9 1.6Zm24.3-9.5a9 9 0 0 1-4.5.7 7.3 7.3 0 0 1-3.8-1.6c-1.2-1-2-2.3-2.8-3.9l-2.1-5.2a8 8 0 0 1 .8-8.5 9 9 0 0 1 3.7-2.6 9 9 0 0 1 4.5-.7 7 7 0 0 1 3.8 1.5c1.1.9 2 2 2.6 3.6l1.5 3.7-12.7 5.2 1 2.1a5.6 5.6 0 0 0 2.8 3.2c1.2.6 2.6.5 4.1 0a6.4 6.4 0 0 0 2.9-2.2c.6-.9.8-1.8.6-2.8l3-1.2c.4 1.8.2 3.5-.8 5a9.5 9.5 0 0 1-4.6 3.7Zm0-13.9-.6-1.6a6.1 6.1 0 0 0-3-3.3 5.1 5.1 0 0 0-4.1.1 5.1 5.1 0 0 0-3 2.9c-.5 1.3-.5 2.7.2 4.4l.6 1.3 10.1-4.2-.2.4Zm15.2 7.1-8.4-20.3 3-1.2 1.6 3.8.6-.3-.2 1.5a5.7 5.7 0 0 1-.2-4.5 6 6 0 0 1 3.5-3.1c2.2-1 4-1 5.7-.1 1.7.7 3 2.3 4 4.6l.7 1.8-3 1.2-.7-1.8c-.6-1.6-1.5-2.6-2.6-3-1.1-.5-2.4-.4-3.9.2a4.9 4.9 0 0 0-2.9 2.7 6 6 0 0 0 .4 4.3l5.4 13-3 1.2Zm28.2-11.2a10 10 0 0 1-4 .9 6 6 0 0 1-3.2-1 6.7 6.7 0 0 1-2.2-2.8l3-1.2c.4 1 1.1 1.6 2 1.9 1 .3 2.1.1 3.4-.4l1.8-.8a4.9 4.9 0 0 0 2.6-2c.5-1 .5-1.9.1-2.9s-1-1.6-1.6-2a3 3 0 0 0-2.4-.2l-5.7 1.5c-1.5.4-2.9.3-4.1-.3a6 6 0 0 1-2.8-3.2c-.7-1.8-.6-3.4.1-5a8 8 0 0 1 4.4-3.5l1.7-.7a8 8 0 0 1 5.3-.5 5 5 0 0 1 3.6 3l-3 1.1c-.3-.7-1-1.2-1.9-1.4-.9-.2-1.9-.1-3 .3l-1.7.7c-1.2.5-2 1.2-2.5 2a3 3 0 0 0 0 2.8c.2.7.7 1.3 1.3 1.6.6.2 1.4.3 2.2 0l5.3-1.3c1.8-.5 3.3-.4 4.7.3 1.3.6 2.3 1.8 3 3.5.7 1.9.7 3.6 0 5.2a8 8 0 0 1-4.5 3.6l-1.9.8Zm15.1-6.6-1-2.7 7.2-3-6.2-15-6.5 2.7-1.1-2.7 9.4-3.8 7.3 17.6 6.9-2.8 1.1 2.7-17 7Zm-1.5-27.5a3 3 0 0 1-2.1.1c-.6-.2-1-.6-1.4-1.3-.2-.7-.3-1.4 0-2 .3-.6.8-1 1.6-1.4.8-.3 1.5-.3 2 0 .7.1 1.2.6 1.5 1.3.3.7.2 1.3 0 2-.3.5-.9 1-1.6 1.3Zm31.7 15.5c-1.6.6-3.1.9-4.6.7a7.2 7.2 0 0 1-3.8-1.6c-1.1-1-2-2.2-2.7-3.9l-2-5a10 10 0 0 1-1-4.7c.2-1.5.8-2.8 1.7-3.9.9-1.1 2.1-2 3.7-2.6 1.6-.7 3.1-1 4.5-.8a7 7 0 0 1 3.8 1.7c1.2.9 2 2.2 2.8 3.8l2 5.1a9 9 0 0 1 .8 4.7 7 7 0 0 1-1.5 3.8 9 9 0 0 1-3.7 2.7Zm-1.1-2.7a5.1 5.1 0 0 0 3-2.7c.5-1.2.4-2.7-.3-4.3l-2.3-5.6c-.7-1.7-1.6-2.8-2.8-3.3a5.2 5.2 0 0 0-4.1.2 5.2 5.2 0 0 0-3 2.7c-.5 1.3-.4 2.7.2 4.4l2.4 5.6a5.3 5.3 0 0 0 2.8 3.2c1.2.5 2.6.5 4-.2Zm15.6-3.7-8.4-20.4 3-1.2 1.5 3.8.7-.3-.3 1.4a5.4 5.4 0 0 1-.2-4.4 6.3 6.3 0 0 1 3.6-3.1c2-.8 3.9-.9 5.6 0 1.8.7 3 2.2 4 4.3l5.6 13.7-3 1.2-5.4-13.2a5.5 5.5 0 0 0-2.7-3.2 4.6 4.6 0 0 0-4 0 4.8 4.8 0 0 0-2.8 2.8c-.4 1.3-.3 2.7.3 4.3l5.4 13-3 1.3Z"/><rect width="285.8" height="146.7" x="1080.9" y="94.3" stroke="red" stroke-dasharray="10 10" stroke-width="5" rx="10.5" transform="rotate(-21 1081 94.3)"/></g><defs><linearGradient id="b" x1="2263.2" x2="1628.2" y1="201.9" y2="-913" gradientUnits="userSpaceOnUse"><stop stop-color="#F8F6EC"/><stop offset="1" stop-color="#fff"/><stop offset="1" stop-color="#FEFDFB"/></linearGradient><linearGradient id="d" x1="1562.7" x2="1491.3" y1="141.3" y2="130.7" gradientUnits="userSpaceOnUse"><stop stop-color="#F8F6EC"/><stop offset="1" stop-color="#fff"/><stop offset="1" stop-color="#FEFDFB"/></linearGradient><clipPath id="a"><path fill="#fff" d="M0 0h2414v225H0z"/></clipPath></defs></svg>