<svg width="263" height="216" viewBox="0 0 263 216" fill="none" xmlns="http://www.w3.org/2000/svg">
<path d="M216.243 2.41602L46.6025 2.36243L46.549 172.003L216.189 172.056L216.243 2.41602Z" fill="#332F28"/>
<path d="M66.9229 40.0818L88.144 21.1143Z" fill="white"/>
<path fill-rule="evenodd" clip-rule="evenodd" d="M89.2614 22.3645L68.0404 41.332L65.8055 38.8316L87.0266 19.8641L89.2614 22.3645Z" fill="#808C7E"/>
<path d="M65.0972 7.27396L74.3691 16.4887Z" fill="white"/>
<path fill-rule="evenodd" clip-rule="evenodd" d="M73.1871 17.678L63.9152 8.46329L66.2792 6.08462L75.5511 15.2994L73.1871 17.678Z" fill="#808C7E"/>
<path d="M51.8936 20.8188L61.1654 30.0336Z" fill="white"/>
<path fill-rule="evenodd" clip-rule="evenodd" d="M59.9834 31.2229L50.7115 22.0082L53.0756 19.6295L62.3474 28.8442L59.9834 31.2229Z" fill="#808C7E"/>
<path d="M155.993 18.7057L143.082 30.7706Z" fill="white"/>
<path fill-rule="evenodd" clip-rule="evenodd" d="M141.937 29.5455L154.848 17.4806L157.138 19.9309L144.226 31.9958L141.937 29.5455Z" fill="#808C7E"/>
<path d="M64.1775 138.261L75.4368 150.271Z" fill="white"/>
<path fill-rule="evenodd" clip-rule="evenodd" d="M74.2136 151.417L62.9543 139.407L65.4008 137.114L76.6601 149.124L74.2136 151.417Z" fill="#808C7E"/>
<path d="M201.7 125.464L187.694 138.899Z" fill="white"/>
<path fill-rule="evenodd" clip-rule="evenodd" d="M186.533 137.689L200.539 124.254L202.86 126.674L188.854 140.109L186.533 137.689Z" fill="#808C7E"/>
<path d="M169.99 11.6884L181.09 2.00551Z" fill="white"/>
<path fill-rule="evenodd" clip-rule="evenodd" d="M182.192 3.26909L171.092 12.952L168.888 10.4248L179.987 0.74193L182.192 3.26909Z" fill="#808C7E"/>
<path fill-rule="evenodd" clip-rule="evenodd" d="M72.8016 86.728L57.0988 70.4643L59.5114 68.1349L75.2142 84.3986L72.8016 86.728Z" fill="#808C7E"/>
<path fill-rule="evenodd" clip-rule="evenodd" d="M86.0841 109.225L66.736 127.171L64.4554 124.713L83.8035 106.766L86.0841 109.225Z" fill="#808C7E"/>
<path fill-rule="evenodd" clip-rule="evenodd" d="M164.472 57.2606L150.171 41.8382L152.63 39.5579L166.931 54.9803L164.472 57.2606Z" fill="#808C7E"/>
<path fill-rule="evenodd" clip-rule="evenodd" d="M172.322 130.446L154.937 111.658L157.398 109.381L174.783 128.168L172.322 130.446Z" fill="#808C7E"/>
<path fill-rule="evenodd" clip-rule="evenodd" d="M139.847 96.9626L124.424 111.263L122.144 108.804L137.567 94.5035L139.847 96.9626Z" fill="#808C7E"/>
<path d="M45.0567 164.902L80.0275 131.015L45.0567 94.6328V164.902Z" fill="white"/>
<path d="M120.621 173.228L84.0421 135.174L44.7684 173.228H120.621Z" fill="white"/>
<path d="M84.3537 2.47785L67.965 18.2571L121.786 74.026L158.534 38.6448L123.63 2.47785H84.3537Z" fill="white"/>
<path d="M216.987 84.2112L184.649 115.33L216.987 148.83V84.2112Z" fill="white"/>
<path d="M134.496 2.71402L164.237 33.6202L183.61 14.9232L171.862 2.71402H134.496Z" fill="white"/>
<path d="M215.098 2.79288H180.985L215.098 38.218V2.79288Z" fill="white"/>
<path d="M46.4737 85.9794L86.8662 47.1802L62.522 22.2108L46.4737 37.6261V85.9794Z" fill="white"/>
<path d="M47.4183 27.6983L73.8481 2.32054H47.4183V27.6983Z" fill="white"/>
<path d="M180.524 119.721L126.336 171.811H216.987V157.361L180.524 119.721Z" fill="white"/>
<path fill-rule="evenodd" clip-rule="evenodd" d="M44.2416 0L218.605 0.0550761L218.55 174.419L44.1865 174.364L44.2416 0ZM48.9635 4.72486L48.9114 169.642L213.828 169.694L213.88 4.77695L48.9635 4.72486Z" fill="#332F28"/>
<path d="M126.378 93.4816L152.759 120.86L214.529 61.3409L188.148 33.9624L126.378 93.4816Z" fill="#29C82E"/>
<path d="M90.2434 64.4969L63.953 89.8292L122.103 150.178L148.393 124.846L90.2434 64.4969Z" fill="#29C82E"/>
<rect x="138.072" y="154.821" width="92.1274" height="47.2956" rx="3.38437" transform="rotate(-20.678 138.072 154.821)" fill="white" fill-opacity="0.7" stroke="#FF0000" stroke-width="1.6116" stroke-dasharray="3.22 3.22"/>
<mask id="path-3-outside-1_397_680" maskUnits="userSpaceOnUse" x="147.799" y="127.768" width="81.0105" height="59.2547" fill="black">
<rect fill="white" x="147.799" y="127.768" width="81.0105" height="59.2547"/>
<path d="M162.062 183.795L153.551 163.709C153.036 162.493 152.842 161.321 152.968 160.192C153.106 159.036 153.531 158.005 154.245 157.097C154.958 156.19 155.923 155.479 157.138 154.964C158.335 154.457 159.482 154.229 160.578 154.279C161.675 154.33 162.649 154.645 163.5 155.226C164.351 155.806 164.997 156.619 165.44 157.664C165.875 158.689 165.967 159.726 165.716 160.773C165.457 161.801 164.91 162.626 164.076 163.249L164.112 163.334C165.005 163.113 165.863 163.13 166.688 163.385C167.532 163.633 168.294 164.083 168.974 164.736C169.665 165.361 170.212 166.149 170.614 167.099C171.129 168.314 171.341 169.502 171.249 170.661C171.15 171.801 170.757 172.83 170.071 173.748C169.384 174.666 168.443 175.378 167.246 175.886C165.936 176.441 164.752 176.528 163.694 176.147C162.628 175.747 161.834 174.93 161.311 173.695L162.378 174.151L161.637 174.465L163.243 178.018L165.139 182.491L162.062 183.795ZM165.453 173.318C166.497 172.876 167.188 172.18 167.525 171.23C167.873 170.254 167.81 169.206 167.335 168.085C166.868 166.983 166.167 166.227 165.232 165.817C164.307 165.38 163.313 165.387 162.249 165.837L160.796 166.453L159.782 164.06L160.808 163.625C161.72 163.239 162.334 162.654 162.652 161.869C162.988 161.077 162.967 160.235 162.589 159.342C162.203 158.43 161.608 157.82 160.805 157.51C160.021 157.193 159.173 157.227 158.261 157.614C157.33 158.008 156.717 158.649 156.421 159.536C156.116 160.404 156.186 161.361 156.628 162.405L160.298 171.067C160.773 172.187 161.491 172.958 162.454 173.379C163.409 173.781 164.408 173.761 165.453 173.318ZM183.304 169.082C182.031 169.621 180.802 169.839 179.616 169.737C178.449 169.627 177.402 169.219 176.476 168.513C175.561 167.781 174.834 166.778 174.295 165.506L172.725 161.802C172.178 160.51 171.964 159.291 172.082 158.143C172.22 156.987 172.655 155.951 173.387 155.036C174.138 154.112 175.15 153.381 176.423 152.842C177.715 152.295 178.944 152.076 180.111 152.187C181.27 152.278 182.299 152.671 183.198 153.366C184.108 154.033 184.825 154.984 185.348 156.219L186.543 159.039L176.799 163.168L177.342 164.45C177.809 165.551 178.475 166.277 179.34 166.628C180.206 166.978 181.161 166.932 182.205 166.489C183.06 166.127 183.708 165.673 184.149 165.128C184.582 164.564 184.739 163.982 184.619 163.383L187.668 162.091C188.022 163.509 187.799 164.858 186.997 166.139C186.206 167.393 184.975 168.374 183.304 169.082ZM182.783 158.414L182.373 157.446C181.89 156.306 181.221 155.547 180.367 155.17C179.523 154.766 178.551 154.797 177.449 155.264C176.366 155.722 175.668 156.399 175.352 157.295C175.029 158.171 175.113 159.188 175.604 160.347L175.894 161.031L182.89 158.033L182.783 158.414ZM201.834 160.895C200.447 161.482 199.176 161.55 198.022 161.098C196.867 160.647 196.004 159.746 195.432 158.398L191.847 149.936L187.431 151.807L186.248 149.015L190.664 147.144L188.793 142.728L191.87 141.424L193.741 145.84L200.066 143.16L201.249 145.952L194.924 148.632L198.485 157.037C198.695 157.531 199.01 157.879 199.432 158.081C199.845 158.264 200.29 158.255 200.764 158.054L205.38 156.099L206.563 158.891L201.834 160.895ZM215.904 155.269C214.308 155.945 212.846 156.038 211.519 155.548C210.202 155.03 209.233 154.04 208.614 152.578C208.195 151.59 208.057 150.629 208.199 149.695C208.341 148.761 208.745 147.918 209.412 147.165C210.071 146.393 210.951 145.774 212.052 145.307L216.383 143.472L215.9 142.332C215.522 141.44 214.98 140.874 214.274 140.636C213.568 140.397 212.711 140.491 211.705 140.917C210.793 141.304 210.134 141.785 209.728 142.36C209.322 142.935 209.229 143.535 209.449 144.159L206.429 145.438C205.96 144.068 206.09 142.736 206.819 141.442C207.547 140.147 208.823 139.114 210.647 138.341C212.584 137.52 214.282 137.35 215.74 137.83C217.19 138.291 218.265 139.348 218.965 141L223.504 151.713L220.484 152.992L219.241 150.058L218.728 150.275L219.023 149.545C219.345 150.305 219.437 151.05 219.298 151.781C219.152 152.493 218.792 153.149 218.218 153.751C217.663 154.345 216.891 154.851 215.904 155.269ZM215.712 152.359C216.871 151.868 217.666 151.207 218.098 150.374C218.54 149.515 218.56 148.61 218.157 147.66L217.3 145.637L213.198 147.376C212.381 147.722 211.826 148.237 211.534 148.921C211.252 149.578 211.272 150.286 211.594 151.046C211.932 151.844 212.467 152.367 213.2 152.617C213.925 152.848 214.763 152.762 215.712 152.359Z"/>
</mask>
<path d="M162.062 183.795L153.551 163.709C153.036 162.493 152.842 161.321 152.968 160.192C153.106 159.036 153.531 158.005 154.245 157.097C154.958 156.19 155.923 155.479 157.138 154.964C158.335 154.457 159.482 154.229 160.578 154.279C161.675 154.33 162.649 154.645 163.5 155.226C164.351 155.806 164.997 156.619 165.44 157.664C165.875 158.689 165.967 159.726 165.716 160.773C165.457 161.801 164.91 162.626 164.076 163.249L164.112 163.334C165.005 163.113 165.863 163.13 166.688 163.385C167.532 163.633 168.294 164.083 168.974 164.736C169.665 165.361 170.212 166.149 170.614 167.099C171.129 168.314 171.341 169.502 171.249 170.661C171.15 171.801 170.757 172.83 170.071 173.748C169.384 174.666 168.443 175.378 167.246 175.886C165.936 176.441 164.752 176.528 163.694 176.147C162.628 175.747 161.834 174.93 161.311 173.695L162.378 174.151L161.637 174.465L163.243 178.018L165.139 182.491L162.062 183.795ZM165.453 173.318C166.497 172.876 167.188 172.18 167.525 171.23C167.873 170.254 167.81 169.206 167.335 168.085C166.868 166.983 166.167 166.227 165.232 165.817C164.307 165.38 163.313 165.387 162.249 165.837L160.796 166.453L159.782 164.06L160.808 163.625C161.72 163.239 162.334 162.654 162.652 161.869C162.988 161.077 162.967 160.235 162.589 159.342C162.203 158.43 161.608 157.82 160.805 157.51C160.021 157.193 159.173 157.227 158.261 157.614C157.33 158.008 156.717 158.649 156.421 159.536C156.116 160.404 156.186 161.361 156.628 162.405L160.298 171.067C160.773 172.187 161.491 172.958 162.454 173.379C163.409 173.781 164.408 173.761 165.453 173.318ZM183.304 169.082C182.031 169.621 180.802 169.839 179.616 169.737C178.449 169.627 177.402 169.219 176.476 168.513C175.561 167.781 174.834 166.778 174.295 165.506L172.725 161.802C172.178 160.51 171.964 159.291 172.082 158.143C172.22 156.987 172.655 155.951 173.387 155.036C174.138 154.112 175.15 153.381 176.423 152.842C177.715 152.295 178.944 152.076 180.111 152.187C181.27 152.278 182.299 152.671 183.198 153.366C184.108 154.033 184.825 154.984 185.348 156.219L186.543 159.039L176.799 163.168L177.342 164.45C177.809 165.551 178.475 166.277 179.34 166.628C180.206 166.978 181.161 166.932 182.205 166.489C183.06 166.127 183.708 165.673 184.149 165.128C184.582 164.564 184.739 163.982 184.619 163.383L187.668 162.091C188.022 163.509 187.799 164.858 186.997 166.139C186.206 167.393 184.975 168.374 183.304 169.082ZM182.783 158.414L182.373 157.446C181.89 156.306 181.221 155.547 180.367 155.17C179.523 154.766 178.551 154.797 177.449 155.264C176.366 155.722 175.668 156.399 175.352 157.295C175.029 158.171 175.113 159.188 175.604 160.347L175.894 161.031L182.89 158.033L182.783 158.414ZM201.834 160.895C200.447 161.482 199.176 161.55 198.022 161.098C196.867 160.647 196.004 159.746 195.432 158.398L191.847 149.936L187.431 151.807L186.248 149.015L190.664 147.144L188.793 142.728L191.87 141.424L193.741 145.84L200.066 143.16L201.249 145.952L194.924 148.632L198.485 157.037C198.695 157.531 199.01 157.879 199.432 158.081C199.845 158.264 200.29 158.255 200.764 158.054L205.38 156.099L206.563 158.891L201.834 160.895ZM215.904 155.269C214.308 155.945 212.846 156.038 211.519 155.548C210.202 155.03 209.233 154.04 208.614 152.578C208.195 151.59 208.057 150.629 208.199 149.695C208.341 148.761 208.745 147.918 209.412 147.165C210.071 146.393 210.951 145.774 212.052 145.307L216.383 143.472L215.9 142.332C215.522 141.44 214.98 140.874 214.274 140.636C213.568 140.397 212.711 140.491 211.705 140.917C210.793 141.304 210.134 141.785 209.728 142.36C209.322 142.935 209.229 143.535 209.449 144.159L206.429 145.438C205.96 144.068 206.09 142.736 206.819 141.442C207.547 140.147 208.823 139.114 210.647 138.341C212.584 137.52 214.282 137.35 215.74 137.83C217.19 138.291 218.265 139.348 218.965 141L223.504 151.713L220.484 152.992L219.241 150.058L218.728 150.275L219.023 149.545C219.345 150.305 219.437 151.05 219.298 151.781C219.152 152.493 218.792 153.149 218.218 153.751C217.663 154.345 216.891 154.851 215.904 155.269ZM215.712 152.359C216.871 151.868 217.666 151.207 218.098 150.374C218.54 149.515 218.56 148.61 218.157 147.66L217.3 145.637L213.198 147.376C212.381 147.722 211.826 148.237 211.534 148.921C211.252 149.578 211.272 150.286 211.594 151.046C211.932 151.844 212.467 152.367 213.2 152.617C213.925 152.848 214.763 152.762 215.712 152.359Z" fill="#FF0000" fill-opacity="0.27"/>
<path d="M162.062 183.795L160.578 184.424L161.207 185.908L162.69 185.279L162.062 183.795ZM152.968 160.192L151.368 160.002L151.367 160.013L152.968 160.192ZM154.245 157.097L152.978 156.101L152.978 156.101L154.245 157.097ZM163.5 155.226L162.592 156.557L162.592 156.557L163.5 155.226ZM165.716 160.773L167.279 161.166L167.281 161.157L167.283 161.148L165.716 160.773ZM164.076 163.249L163.113 161.957L162.099 162.713L162.592 163.877L164.076 163.249ZM164.112 163.334L162.629 163.963L163.165 165.229L164.5 164.898L164.112 163.334ZM166.688 163.385L166.212 164.925L166.223 164.929L166.235 164.932L166.688 163.385ZM168.974 164.736L167.858 165.898L167.875 165.914L167.892 165.93L168.974 164.736ZM171.249 170.661L172.855 170.801L172.856 170.787L171.249 170.661ZM170.071 173.748L171.361 174.713L171.361 174.713L170.071 173.748ZM163.694 176.147L163.128 177.656L163.138 177.66L163.148 177.663L163.694 176.147ZM161.311 173.695L161.944 172.213L158.268 170.644L159.827 174.324L161.311 173.695ZM162.378 174.151L163.006 175.635L166.495 174.156L163.01 172.669L162.378 174.151ZM161.637 174.465L161.008 172.981L159.489 173.625L160.168 175.129L161.637 174.465ZM163.243 178.018L164.727 177.39L164.72 177.372L164.712 177.354L163.243 178.018ZM165.139 182.491L165.767 183.975L167.251 183.347L166.623 181.863L165.139 182.491ZM167.525 171.23L166.007 170.689L166.007 170.691L167.525 171.23ZM165.232 165.817L164.543 167.274L164.564 167.284L164.585 167.293L165.232 165.817ZM160.796 166.453L159.312 167.082L159.941 168.566L161.425 167.937L160.796 166.453ZM159.782 164.06L159.154 162.576L157.67 163.205L158.298 164.689L159.782 164.06ZM162.652 161.869L161.168 161.24L161.163 161.252L161.158 161.265L162.652 161.869ZM160.805 157.51L160.2 159.004L160.213 159.009L160.225 159.014L160.805 157.51ZM156.421 159.536L157.941 160.069L157.945 160.058L157.949 160.046L156.421 159.536ZM162.454 173.379L161.808 174.856L161.818 174.86L161.828 174.864L162.454 173.379ZM163.546 183.166L155.035 163.08L152.067 164.338L160.578 184.424L163.546 183.166ZM155.035 163.08C154.61 162.078 154.479 161.184 154.57 160.372L151.367 160.013C151.205 161.458 151.462 162.909 152.067 164.338L155.035 163.08ZM154.569 160.383C154.671 159.518 154.983 158.766 155.512 158.094L152.978 156.101C152.08 157.243 151.54 158.554 151.368 160.002L154.569 160.383ZM155.512 158.094C156.034 157.429 156.765 156.872 157.767 156.448L156.509 153.48C155.08 154.086 153.882 154.951 152.978 156.101L155.512 158.094ZM157.767 156.448C158.782 156.018 159.688 155.852 160.504 155.889L160.653 152.669C159.275 152.606 157.888 152.896 156.509 153.48L157.767 156.448ZM160.504 155.889C161.323 155.927 162.004 156.156 162.592 156.557L164.408 153.895C163.294 153.135 162.027 152.733 160.653 152.669L160.504 155.889ZM162.592 156.557C163.162 156.946 163.621 157.502 163.956 158.292L166.924 157.035C166.373 155.736 165.54 154.667 164.408 153.895L162.592 156.557ZM163.956 158.292C164.261 159.012 164.316 159.697 164.148 160.398L167.283 161.148C167.617 159.754 167.488 158.366 166.924 157.035L163.956 158.292ZM164.153 160.379C163.983 161.056 163.644 161.561 163.113 161.957L165.04 164.54C166.177 163.692 166.931 162.547 167.279 161.166L164.153 160.379ZM162.592 163.877L162.629 163.963L165.596 162.705L165.56 162.62L162.592 163.877ZM164.5 164.898C165.126 164.743 165.685 164.762 166.212 164.925L167.165 161.846C166.041 161.498 164.883 161.483 163.725 161.77L164.5 164.898ZM166.235 164.932C166.813 165.101 167.351 165.411 167.858 165.898L170.09 163.573C169.237 162.754 168.252 162.164 167.141 161.839L166.235 164.932ZM167.892 165.93C168.392 166.383 168.809 166.97 169.13 167.728L172.098 166.47C171.614 165.328 170.938 164.34 170.056 163.541L167.892 165.93ZM169.13 167.728C169.558 168.738 169.711 169.666 169.643 170.534L172.856 170.787C172.97 169.337 172.7 167.891 172.098 166.47L169.13 167.728ZM169.644 170.521C169.571 171.361 169.287 172.105 168.78 172.783L171.361 174.713C172.227 173.555 172.729 172.24 172.855 170.801L169.644 170.521ZM168.78 172.783C168.286 173.443 167.587 173.991 166.617 174.402L167.875 177.369C169.298 176.766 170.482 175.889 171.361 174.713L168.78 172.783ZM166.617 174.402C165.577 174.842 164.822 174.84 164.24 174.631L163.148 177.663C164.681 178.216 166.294 178.039 167.875 177.369L166.617 174.402ZM164.26 174.638C163.682 174.421 163.179 173.973 162.795 173.067L159.827 174.324C160.489 175.887 161.575 177.073 163.128 177.656L164.26 174.638ZM160.678 175.178L161.745 175.633L163.01 172.669L161.944 172.213L160.678 175.178ZM161.749 172.667L161.008 172.981L162.266 175.949L163.006 175.635L161.749 172.667ZM160.168 175.129L161.775 178.682L164.712 177.354L163.105 173.801L160.168 175.129ZM161.76 178.647L163.655 183.12L166.623 181.863L164.727 177.39L161.76 178.647ZM164.51 181.008L161.433 182.311L162.69 185.279L165.767 183.975L164.51 181.008ZM166.082 174.802C167.484 174.208 168.536 173.201 169.044 171.77L166.007 170.691C165.841 171.159 165.511 171.544 164.824 171.835L166.082 174.802ZM169.043 171.772C169.55 170.35 169.422 168.88 168.819 167.456L165.851 168.714C166.198 169.531 166.197 170.158 166.007 170.689L169.043 171.772ZM168.819 167.456C168.221 166.045 167.255 164.945 165.879 164.341L164.585 167.293C165.08 167.51 165.516 167.921 165.851 168.714L168.819 167.456ZM165.921 164.36C164.525 163.7 163.046 163.749 161.621 164.353L162.878 167.321C163.58 167.024 164.09 167.06 164.543 167.274L165.921 164.36ZM161.621 164.353L160.168 164.969L161.425 167.937L162.878 167.321L161.621 164.353ZM162.28 165.824L161.266 163.431L158.298 164.689L159.312 167.082L162.28 165.824ZM160.411 165.544L161.437 165.109L160.179 162.141L159.154 162.576L160.411 165.544ZM161.437 165.109C162.67 164.587 163.641 163.722 164.146 162.474L161.158 161.265C161.028 161.585 160.77 161.891 160.179 162.141L161.437 165.109ZM164.135 162.499C164.665 161.252 164.598 159.952 164.073 158.713L161.105 159.971C161.337 160.517 161.312 160.902 161.168 161.24L164.135 162.499ZM164.073 158.713C163.544 157.465 162.657 156.497 161.384 156.006L160.225 159.014C160.559 159.143 160.861 159.395 161.105 159.971L164.073 158.713ZM161.409 156.017C160.162 155.511 158.865 155.607 157.632 156.13L158.89 159.098C159.48 158.847 159.879 158.874 160.2 159.004L161.409 156.017ZM157.632 156.13C156.314 156.688 155.347 157.662 154.892 159.026L157.949 160.046C158.086 159.636 158.346 159.328 158.89 159.098L157.632 156.13ZM154.9 159.003C154.434 160.333 154.583 161.71 155.144 163.034L158.112 161.777C157.788 161.011 157.799 160.476 157.941 160.069L154.9 159.003ZM155.144 163.034L158.814 171.695L161.782 170.438L158.112 161.777L155.144 163.034ZM158.814 171.695C159.422 173.131 160.409 174.243 161.808 174.856L163.1 171.903C162.574 171.673 162.123 171.244 161.782 170.438L158.814 171.695ZM161.828 174.864C163.224 175.453 164.678 175.397 166.082 174.802L164.824 171.835C164.138 172.125 163.593 172.11 163.08 171.894L161.828 174.864ZM179.616 169.737L179.464 171.341L179.477 171.343L179.616 169.737ZM176.476 168.513L175.469 169.772L175.484 169.784L175.5 169.795L176.476 168.513ZM172.082 158.143L170.482 157.952L170.48 157.965L170.479 157.977L172.082 158.143ZM173.387 155.036L172.137 154.018L172.129 154.029L173.387 155.036ZM180.111 152.187L179.959 153.791L179.972 153.792L179.984 153.793L180.111 152.187ZM183.198 153.366L182.213 154.641L182.229 154.653L182.245 154.665L183.198 153.366ZM186.543 159.039L187.172 160.523L188.655 159.894L188.027 158.41L186.543 159.039ZM176.799 163.168L176.17 161.684L174.686 162.313L175.315 163.796L176.799 163.168ZM179.34 166.628L179.945 165.134L179.945 165.134L179.34 166.628ZM184.149 165.128L185.402 166.141L185.415 166.125L185.428 166.109L184.149 165.128ZM184.619 163.383L183.991 161.899L182.782 162.411L183.039 163.698L184.619 163.383ZM187.668 162.091L189.231 161.7L188.774 159.872L187.039 160.607L187.668 162.091ZM186.997 166.139L188.36 166.999L188.363 166.994L186.997 166.139ZM182.783 158.414L181.299 159.043L183.092 163.273L184.335 158.85L182.783 158.414ZM180.367 155.17L179.67 156.623L179.693 156.634L179.716 156.644L180.367 155.17ZM175.352 157.295L176.864 157.852L176.869 157.841L176.872 157.83L175.352 157.295ZM175.894 161.031L174.41 161.66L175.041 163.15L176.528 162.512L175.894 161.031ZM182.89 158.033L184.442 158.469L185.354 155.224L182.256 156.551L182.89 158.033ZM182.675 167.598C181.605 168.051 180.639 168.208 179.755 168.131L179.477 171.343C180.965 171.471 182.457 171.191 183.933 170.566L182.675 167.598ZM179.768 168.133C178.898 168.05 178.138 167.753 177.453 167.231L175.5 169.795C176.667 170.684 178 171.203 179.464 171.341L179.768 168.133ZM177.483 167.255C176.811 166.717 176.232 165.948 175.779 164.877L172.811 166.135C173.436 167.609 174.311 168.845 175.469 169.772L177.483 167.255ZM175.779 164.877L174.209 161.173L171.241 162.431L172.811 166.135L175.779 164.877ZM174.209 161.173C173.745 160.078 173.6 159.133 173.685 158.308L170.479 157.977C170.327 159.448 170.611 160.942 171.241 162.431L174.209 161.173ZM173.683 158.333C173.784 157.478 174.1 156.725 174.645 156.043L172.129 154.029C171.21 155.177 170.655 156.495 170.482 157.952L173.683 158.333ZM174.637 156.053C175.198 155.364 175.982 154.779 177.052 154.326L175.794 151.358C174.319 151.983 173.079 152.861 172.137 154.018L174.637 156.053ZM177.052 154.326C178.145 153.862 179.106 153.71 179.959 153.791L180.263 150.582C178.782 150.442 177.284 150.727 175.794 151.358L177.052 154.326ZM179.984 153.793C180.839 153.861 181.568 154.143 182.213 154.641L184.183 152.09C183.03 151.2 181.701 150.696 180.238 150.58L179.984 153.793ZM182.245 154.665C182.88 155.131 183.433 155.829 183.864 156.847L186.832 155.59C186.217 154.138 185.336 152.935 184.151 152.066L182.245 154.665ZM183.864 156.847L185.059 159.668L188.027 158.41L186.832 155.59L183.864 156.847ZM185.914 157.555L176.17 161.684L177.428 164.652L187.172 160.523L185.914 157.555ZM175.315 163.796L175.858 165.078L178.826 163.821L178.283 162.539L175.315 163.796ZM175.858 165.078C176.443 166.458 177.371 167.569 178.736 168.121L179.945 165.134C179.579 164.986 179.175 164.645 178.826 163.821L175.858 165.078ZM178.736 168.121C180.08 168.666 181.486 168.544 182.834 167.973L181.577 165.005C180.835 165.319 180.332 165.29 179.945 165.134L178.736 168.121ZM182.834 167.973C183.857 167.54 184.75 166.948 185.402 166.141L182.896 164.114C182.666 164.398 182.264 164.714 181.577 165.005L182.834 167.973ZM185.428 166.109C186.092 165.243 186.425 164.199 186.2 163.068L183.039 163.698C183.052 163.765 183.072 163.884 182.87 164.147L185.428 166.109ZM185.248 164.867L188.297 163.575L187.039 160.607L183.991 161.899L185.248 164.867ZM186.104 162.482C186.349 163.459 186.209 164.361 185.631 165.284L188.363 166.994C189.388 165.356 189.696 163.559 189.231 161.7L186.104 162.482ZM185.634 165.279C185.055 166.198 184.113 166.989 182.675 167.598L183.933 170.566C185.838 169.758 187.358 168.588 188.36 166.999L185.634 165.279ZM184.267 157.785L183.857 156.817L180.889 158.074L181.299 159.043L184.267 157.785ZM183.857 156.817C183.267 155.426 182.356 154.287 181.018 153.696L179.716 156.644C180.086 156.808 180.512 157.186 180.889 158.074L183.857 156.817ZM181.063 153.717C179.693 153.06 178.221 153.187 176.82 153.78L178.078 156.748C178.881 156.407 179.354 156.472 179.67 156.623L181.063 153.717ZM176.82 153.78C175.428 154.37 174.333 155.338 173.832 156.76L176.872 157.83C177.002 157.461 177.305 157.075 178.078 156.748L176.82 153.78ZM173.84 156.737C173.332 158.115 173.526 159.573 174.12 160.976L177.088 159.718C176.7 158.804 176.726 158.227 176.864 157.852L173.84 156.737ZM174.12 160.976L174.41 161.66L177.377 160.402L177.088 159.718L174.12 160.976ZM176.528 162.512L183.525 159.514L182.256 156.551L175.259 159.55L176.528 162.512ZM181.339 157.597L181.232 157.978L184.335 158.85L184.442 158.469L181.339 157.597ZM191.847 149.936L193.331 149.307L192.702 147.824L191.218 148.452L191.847 149.936ZM187.431 151.807L185.947 152.436L186.576 153.92L188.06 153.291L187.431 151.807ZM186.248 149.015L185.619 147.531L184.135 148.16L184.764 149.644L186.248 149.015ZM190.664 147.144L191.293 148.628L192.777 147.999L192.148 146.515L190.664 147.144ZM188.793 142.728L188.164 141.244L186.68 141.873L187.309 143.357L188.793 142.728ZM191.87 141.424L193.354 140.795L192.725 139.312L191.241 139.94L191.87 141.424ZM193.741 145.84L192.257 146.469L192.886 147.953L194.37 147.324L193.741 145.84ZM200.066 143.16L201.55 142.532L200.921 141.048L199.437 141.676L200.066 143.16ZM201.249 145.952L201.878 147.436L203.362 146.808L202.733 145.324L201.249 145.952ZM194.924 148.632L194.295 147.149L192.811 147.777L193.44 149.261L194.924 148.632ZM199.432 158.081L198.735 159.534L198.757 159.545L198.779 159.555L199.432 158.081ZM205.38 156.099L206.864 155.47L206.235 153.986L204.751 154.615L205.38 156.099ZM206.563 158.891L207.192 160.375L208.676 159.746L208.047 158.262L206.563 158.891ZM201.205 159.411C200.117 159.871 199.29 159.864 198.609 159.597L197.435 162.599C199.062 163.236 200.777 163.093 202.462 162.379L201.205 159.411ZM198.609 159.597C197.931 159.332 197.351 158.796 196.916 157.769L193.948 159.027C194.656 160.697 195.803 161.961 197.435 162.599L198.609 159.597ZM196.916 157.769L193.331 149.307L190.363 150.565L193.948 159.027L196.916 157.769ZM191.218 148.452L186.802 150.323L188.06 153.291L192.476 151.42L191.218 148.452ZM188.915 151.179L187.732 148.386L184.764 149.644L185.947 152.436L188.915 151.179ZM186.877 150.499L191.293 148.628L190.035 145.66L185.619 147.531L186.877 150.499ZM192.148 146.515L190.277 142.099L187.309 143.357L189.18 147.773L192.148 146.515ZM189.422 144.212L192.499 142.908L191.241 139.94L188.164 141.244L189.422 144.212ZM190.386 142.053L192.257 146.469L195.225 145.212L193.354 140.795L190.386 142.053ZM194.37 147.324L200.695 144.644L199.437 141.676L193.112 144.356L194.37 147.324ZM198.582 143.789L199.765 146.581L202.733 145.324L201.55 142.532L198.582 143.789ZM200.62 144.469L194.295 147.149L195.553 150.116L201.878 147.436L200.62 144.469ZM193.44 149.261L197.001 157.666L199.969 156.408L196.408 148.004L193.44 149.261ZM197.001 157.666C197.34 158.465 197.907 159.138 198.735 159.534L200.128 156.628C200.112 156.62 200.049 156.597 199.969 156.408L197.001 157.666ZM198.779 159.555C199.659 159.944 200.571 159.886 201.393 159.538L200.136 156.57C200.057 156.604 200.029 156.601 200.043 156.601C200.048 156.6 200.058 156.601 200.068 156.603C200.079 156.605 200.085 156.608 200.084 156.608L198.779 159.555ZM201.393 159.538L206.009 157.583L204.751 154.615L200.136 156.57L201.393 159.538ZM203.896 156.727L205.079 159.519L208.047 158.262L206.864 155.47L203.896 156.727ZM205.934 157.407L201.205 159.411L202.462 162.379L207.192 160.375L205.934 157.407ZM211.519 155.548L210.929 157.048L210.945 157.054L210.96 157.059L211.519 155.548ZM208.199 149.695L206.605 149.453L206.605 149.453L208.199 149.695ZM209.412 147.165L210.618 148.233L210.628 148.222L210.638 148.211L209.412 147.165ZM216.383 143.472L217.012 144.956L218.496 144.327L217.867 142.843L216.383 143.472ZM214.274 140.636L213.758 142.162L213.758 142.162L214.274 140.636ZM209.728 142.36L208.411 141.431L208.411 141.431L209.728 142.36ZM209.449 144.159L210.077 145.642L211.471 145.052L210.969 143.624L209.449 144.159ZM206.429 145.438L204.904 145.96L205.464 147.597L207.057 146.922L206.429 145.438ZM206.819 141.442L205.414 140.651L205.414 140.651L206.819 141.442ZM215.74 137.83L215.236 139.361L215.244 139.363L215.252 139.366L215.74 137.83ZM223.504 151.713L224.133 153.197L225.617 152.568L224.988 151.084L223.504 151.713ZM220.484 152.992L219 153.621L219.629 155.105L221.113 154.476L220.484 152.992ZM219.241 150.058L220.724 149.429L220.096 147.945L218.612 148.574L219.241 150.058ZM218.728 150.275L217.234 149.67L215.774 153.277L219.356 151.759L218.728 150.275ZM219.023 149.545L220.507 148.916L218.989 145.334L217.529 148.94L219.023 149.545ZM219.298 151.781L220.877 152.106L220.88 152.093L220.882 152.081L219.298 151.781ZM218.218 153.751L217.052 152.638L217.046 152.644L217.04 152.65L218.218 153.751ZM218.098 150.374L219.528 151.116L219.531 151.112L218.098 150.374ZM217.3 145.637L218.784 145.009L218.156 143.525L216.672 144.153L217.3 145.637ZM211.534 148.921L213.015 149.556L213.015 149.555L211.534 148.921ZM213.2 152.617L212.681 154.143L212.697 154.148L212.712 154.153L213.2 152.617ZM215.275 153.785C213.968 154.339 212.938 154.354 212.077 154.036L210.96 157.059C212.755 157.722 214.648 157.551 216.532 156.753L215.275 153.785ZM212.108 154.048C211.245 153.709 210.571 153.066 210.097 151.949L207.13 153.207C207.896 155.014 209.158 156.352 210.929 157.048L212.108 154.048ZM210.097 151.949C209.779 151.198 209.701 150.538 209.792 149.938L206.605 149.453C206.413 150.72 206.611 151.982 207.13 153.207L210.097 151.949ZM209.792 149.938C209.884 149.331 210.144 148.77 210.618 148.233L208.205 146.097C207.347 147.066 206.797 148.192 206.605 149.453L209.792 149.938ZM210.638 148.211C211.107 147.661 211.769 147.177 212.681 146.791L211.424 143.823C210.133 144.37 209.034 145.125 208.186 146.119L210.638 148.211ZM212.681 146.791L217.012 144.956L215.754 141.988L211.424 143.823L212.681 146.791ZM217.867 142.843L217.384 141.704L214.416 142.961L214.899 144.101L217.867 142.843ZM217.384 141.704C216.884 140.523 216.054 139.536 214.79 139.109L213.758 142.162C213.905 142.212 214.16 142.357 214.416 142.961L217.384 141.704ZM214.79 139.109C213.568 138.696 212.28 138.924 211.076 139.434L212.333 142.401C213.143 142.058 213.567 142.098 213.758 142.162L214.79 139.109ZM211.076 139.434C209.995 139.892 209.047 140.53 208.411 141.431L211.045 143.289C211.221 143.04 211.591 142.716 212.333 142.401L211.076 139.434ZM208.411 141.431C207.728 142.4 207.523 143.541 207.928 144.694L210.969 143.624C210.939 143.539 210.944 143.502 210.946 143.489C210.949 143.471 210.962 143.406 211.045 143.289L208.411 141.431ZM208.82 142.675L205.8 143.954L207.057 146.922L210.077 145.642L208.82 142.675ZM207.953 144.917C207.638 143.994 207.713 143.138 208.223 142.232L205.414 140.651C204.467 142.334 204.282 144.143 204.904 145.96L207.953 144.917ZM208.223 142.232C208.727 141.338 209.671 140.505 211.276 139.825L210.018 136.857C207.975 137.723 206.368 138.957 205.414 140.651L208.223 142.232ZM211.276 139.825C212.987 139.1 214.267 139.042 215.236 139.361L216.244 136.299C214.297 135.658 212.181 135.941 210.018 136.857L211.276 139.825ZM215.252 139.366C216.171 139.658 216.928 140.324 217.481 141.629L220.449 140.371C219.602 138.372 218.208 136.924 216.228 136.294L215.252 139.366ZM217.481 141.629L222.02 152.341L224.988 151.084L220.449 140.371L217.481 141.629ZM222.875 150.229L219.855 151.508L221.113 154.476L224.133 153.197L222.875 150.229ZM221.968 152.364L220.724 149.429L217.757 150.687L219 153.621L221.968 152.364ZM218.612 148.574L218.099 148.791L219.356 151.759L219.869 151.542L218.612 148.574ZM220.222 150.88L220.517 150.15L217.529 148.94L217.234 149.67L220.222 150.88ZM217.539 150.174C217.751 150.674 217.788 151.096 217.715 151.481L220.882 152.081C221.086 151.004 220.939 149.936 220.507 148.916L217.539 150.174ZM217.72 151.456C217.643 151.831 217.448 152.223 217.052 152.638L219.384 154.863C220.136 154.075 220.661 153.154 220.877 152.106L217.72 151.456ZM217.04 152.65C216.68 153.035 216.118 153.428 215.275 153.785L216.532 156.753C217.664 156.273 218.645 155.654 219.395 154.852L217.04 152.65ZM216.341 153.843C217.727 153.256 218.873 152.38 219.528 151.116L216.667 149.633C216.459 150.033 216.015 150.481 215.084 150.875L216.341 153.843ZM219.531 151.112C220.208 149.795 220.216 148.388 219.641 147.031L216.674 148.289C216.904 148.832 216.872 149.234 216.665 149.637L219.531 151.112ZM219.641 147.031L218.784 145.009L215.816 146.266L216.674 148.289L219.641 147.031ZM216.672 144.153L212.569 145.892L213.826 148.86L217.929 147.121L216.672 144.153ZM212.569 145.892C211.447 146.367 210.539 147.148 210.052 148.287L213.015 149.555C213.113 149.325 213.315 149.076 213.826 148.86L212.569 145.892ZM210.052 148.286C209.571 149.409 209.646 150.579 210.11 151.675L213.078 150.417C212.898 149.994 212.933 149.747 213.015 149.556L210.052 148.286ZM210.11 151.675C210.603 152.839 211.459 153.727 212.681 154.143L213.72 151.091C213.476 151.008 213.26 150.848 213.078 150.417L210.11 151.675ZM212.712 154.153C213.916 154.536 215.164 154.342 216.341 153.843L215.084 150.875C214.362 151.181 213.935 151.159 213.689 151.081L212.712 154.153Z" fill="#FF0000" mask="url(#path-3-outside-1_397_680)"/>
<path d="M184.826 184.819L179.894 179.183L180.908 178.765L184.282 182.687C184.463 182.901 184.634 183.113 184.796 183.326C184.958 183.538 185.083 183.705 185.17 183.827C185.146 183.679 185.113 183.474 185.07 183.213C185.036 182.948 185.003 182.678 184.973 182.402L184.591 177.246L185.592 176.834L186.066 184.308L184.826 184.819ZM192.642 181.736C192.134 181.946 191.65 182.025 191.191 181.972C190.733 181.919 190.321 181.745 189.958 181.449C189.59 181.144 189.299 180.73 189.083 180.206L188.395 178.537C188.175 178.005 188.09 177.505 188.139 177.038C188.189 176.572 188.357 176.158 188.646 175.798C188.934 175.437 189.333 175.152 189.841 174.942C190.35 174.733 190.833 174.654 191.292 174.707C191.747 174.751 192.155 174.918 192.516 175.206C192.873 175.486 193.155 175.877 193.361 176.378L193.843 177.546L189.755 179.231L190.04 179.923C190.249 180.431 190.558 180.773 190.965 180.95C191.372 181.126 191.818 181.114 192.303 180.914C192.716 180.744 193.024 180.519 193.225 180.241C193.423 179.955 193.489 179.653 193.424 179.336L194.365 178.948C194.52 179.526 194.44 180.065 194.126 180.567C193.812 181.068 193.318 181.458 192.642 181.736ZM192.66 177.28L192.444 176.756C192.224 176.224 191.915 175.868 191.515 175.688C191.116 175.509 190.666 175.523 190.165 175.729C189.665 175.935 189.336 176.243 189.179 176.652C189.022 177.06 189.054 177.531 189.273 178.063L189.445 178.48L192.711 177.134L192.66 177.28ZM197.559 179.57L194.856 173.014L195.81 172.621L196.311 173.837L196.513 173.753L196.437 174.245C196.218 173.712 196.203 173.226 196.393 172.785C196.583 172.344 196.96 172.007 197.525 171.774C198.216 171.489 198.829 171.478 199.365 171.741C199.898 171.995 200.318 172.496 200.626 173.243L200.862 173.815L199.92 174.203L199.685 173.631C199.475 173.123 199.19 172.794 198.831 172.644C198.48 172.491 198.066 172.513 197.589 172.71C197.105 172.91 196.794 173.205 196.658 173.596C196.518 173.979 196.558 174.437 196.778 174.969L198.512 179.177L197.559 179.57ZM206.645 175.949C206.184 176.139 205.754 176.233 205.353 176.231C204.957 176.217 204.61 176.109 204.313 175.907C204.023 175.701 203.79 175.406 203.614 175.023L204.568 174.63C204.715 174.941 204.941 175.141 205.247 175.229C205.552 175.316 205.904 175.278 206.301 175.115L206.909 174.864C207.322 174.694 207.603 174.471 207.75 174.197C207.902 173.911 207.909 173.601 207.771 173.268C207.647 172.966 207.471 172.754 207.245 172.634C207.023 172.502 206.763 172.479 206.464 172.565L204.649 173.035C204.151 173.156 203.706 173.126 203.314 172.943C202.928 172.75 202.631 172.402 202.425 171.902C202.192 171.338 202.203 170.812 202.458 170.326C202.713 169.84 203.179 169.457 203.854 169.179L204.414 168.948C205.034 168.692 205.606 168.637 206.132 168.784C206.657 168.93 207.042 169.245 207.288 169.729L206.335 170.122C206.209 169.886 206.001 169.73 205.71 169.655C205.419 169.58 205.098 169.614 204.748 169.758L204.188 169.989C203.799 170.15 203.531 170.367 203.383 170.642C203.236 170.916 203.227 171.209 203.354 171.518C203.456 171.765 203.605 171.936 203.803 172.031C204.008 172.123 204.244 172.132 204.512 172.059L206.226 171.617C206.796 171.466 207.293 171.498 207.716 171.714C208.14 171.93 208.465 172.312 208.691 172.86C208.937 173.456 208.931 174.007 208.675 174.513C208.426 175.015 207.953 175.41 207.253 175.698L206.645 175.949ZM211.507 173.819L211.153 172.961L213.49 171.998L211.494 167.158L209.409 168.018L209.055 167.16L212.094 165.907L214.443 171.604L216.66 170.69L217.014 171.549L211.507 173.819ZM211.014 164.944C210.767 165.045 210.543 165.064 210.339 164.999C210.144 164.931 210 164.785 209.908 164.563C209.813 164.332 209.81 164.12 209.897 163.926C209.992 163.729 210.163 163.579 210.409 163.478C210.656 163.376 210.878 163.363 211.077 163.44C211.284 163.512 211.434 163.664 211.529 163.894C211.618 164.109 211.615 164.315 211.519 164.512C211.429 164.698 211.26 164.842 211.014 164.944ZM221.226 169.938C220.717 170.147 220.229 170.228 219.763 170.178C219.304 170.126 218.893 169.951 218.529 169.655C218.173 169.355 217.885 168.939 217.666 168.407L216.988 166.762C216.768 166.23 216.679 165.732 216.72 165.269C216.77 164.802 216.939 164.388 217.227 164.028C217.523 163.664 217.926 163.377 218.434 163.167C218.951 162.954 219.438 162.874 219.897 162.927C220.356 162.98 220.763 163.156 221.119 163.455C221.483 163.751 221.774 164.166 221.994 164.698L222.672 166.343C222.892 166.875 222.977 167.375 222.927 167.842C222.886 168.305 222.717 168.718 222.421 169.082C222.133 169.443 221.734 169.728 221.226 169.938ZM220.877 169.091C221.369 168.888 221.693 168.592 221.849 168.202C222.012 167.81 221.984 167.347 221.765 166.815L221.018 165.003C220.798 164.47 220.492 164.123 220.099 163.959C219.707 163.796 219.268 163.814 218.783 164.014C218.298 164.214 217.974 164.51 217.811 164.903C217.647 165.295 217.675 165.758 217.895 166.29L218.642 168.102C218.861 168.635 219.168 168.983 219.56 169.146C219.953 169.309 220.392 169.291 220.877 169.091ZM225.909 167.881L223.206 161.326L224.147 160.937L224.649 162.153L224.863 162.065L224.767 162.509C224.548 161.976 224.536 161.498 224.733 161.072C224.93 160.647 225.31 160.319 225.874 160.086C226.526 159.817 227.132 159.809 227.691 160.062C228.248 160.307 228.67 160.779 228.958 161.478L230.772 165.876L229.83 166.265L228.081 162.021C227.864 161.497 227.568 161.15 227.191 160.98C226.811 160.802 226.394 160.806 225.941 160.993C225.472 161.186 225.164 161.485 225.015 161.891C224.866 162.296 224.899 162.761 225.116 163.286L226.85 167.493L225.909 167.881Z" fill="#C92323"/>
</svg>
