<svg xmlns="http://www.w3.org/2000/svg" fill="none" viewBox="0 0 175 175"><path fill="#332F28" d="M172.243 2.416 2.603 2.362l-.054 169.641 169.64.053.054-169.64Z"/><path fill="#808C7E" fill-rule="evenodd" d="m45.261 22.364-21.22 18.968-2.236-2.5 21.222-18.968 2.234 2.5Zm-16.074-4.686-9.272-9.215 2.364-2.378 9.272 9.214-2.364 2.379ZM15.983 31.223l-9.271-9.215 2.364-2.378 9.271 9.214-2.364 2.379Z" clip-rule="evenodd"/><path fill="#fff" d="M111.993 18.706 99.082 30.77Z"/><path fill="#808C7E" fill-rule="evenodd" d="m97.937 29.546 12.911-12.065 2.29 2.45-12.912 12.065-2.29-2.45ZM30.214 151.417l-11.26-12.01 2.447-2.293 11.26 12.01-2.447 2.293Zm112.319-13.728 14.006-13.435 2.321 2.42-14.006 13.435-2.321-2.42ZM138.192 3.27l-11.1 9.682-2.204-2.527L135.987.742l2.205 2.527ZM28.802 86.728 13.099 70.464l2.412-2.33L31.214 84.4l-2.412 2.329Zm13.282 22.497-19.348 17.946-2.28-2.458 19.348-17.947 2.28 2.459Zm78.388-51.965-14.301-15.422 2.459-2.28 14.301 15.422-2.459 2.28Zm7.85 73.186-17.385-18.788 2.461-2.277 17.385 18.787-2.461 2.278ZM95.847 96.963l-15.422 14.3-2.28-2.459 15.422-14.3 2.28 2.459Z" clip-rule="evenodd"/><path fill="#fff" d="m1.057 164.902 34.97-33.887-34.97-36.382v70.269Zm75.563 8.326-36.578-38.054L.768 173.228h75.853ZM40.354 2.478l-16.389 15.78 53.82 55.768 36.749-35.381L79.63 2.478H40.354Zm132.633 81.733-32.338 31.119 32.338 33.5V84.211ZM90.496 2.714l29.741 30.906 19.373-18.697-11.748-12.209H90.497Zm80.602.079h-34.113l34.113 35.425V2.793ZM2.474 85.98l40.392-38.8-24.344-24.97L2.474 37.627V85.98Zm.944-58.282 26.43-25.377H3.418v25.377Zm133.106 92.023-54.188 52.09h90.651v-14.45l-36.463-37.64Z"/><path fill="#332F28" fill-rule="evenodd" d="m.242 0 174.363.055-.055 174.364-174.363-.055L.242 0Zm4.721 4.725-.052 164.917 164.917.052.052-164.917L4.963 4.725Z" clip-rule="evenodd"/><path fill="#29C82E" d="m82.378 93.482 26.381 27.378 61.77-59.52-26.381-27.378-61.77 59.52ZM46.243 64.497l-26.29 25.332 58.15 60.349 26.29-25.332-58.15-60.35Z"/></svg>